<svg width="873" height="98" viewBox="0 0 873 98" fill="none" xmlns="http://www.w3.org/2000/svg">
<circle cx="56.13" cy="46.7834" r="31.5338" fill="#57B8E8"/>
<path d="M72.9476 42.7891V52.8799V42.7891ZM39.3115 42.7891L56.1295 34.3801L72.9476 42.7891L56.1295 51.1981L39.3115 42.7891Z" stroke="#F9F9F9" stroke-width="3.3636" stroke-linecap="round" stroke-linejoin="round"/>
<path d="M46.0391 46.1526V54.5617C51.0845 59.6071 61.1753 59.6071 66.2207 54.5617V46.1526" stroke="#F9F9F9" stroke-width="3.3636" stroke-linecap="round" stroke-linejoin="round"/>
<path d="M108.09 41.9554V45.1794H113.289V48.1764H108.09V51.6728H113.97V54.7833H104.207V38.8449H113.97V41.9554H108.09ZM115.719 48.4261C115.719 47.1244 115.961 45.9816 116.445 44.9978C116.945 44.0139 117.619 43.2571 118.466 42.7273C119.314 42.1976 120.26 41.9327 121.304 41.9327C122.137 41.9327 122.893 42.1067 123.575 42.4549C124.271 42.803 124.816 43.2722 125.209 43.8625V37.9821H129.092V54.7833H125.209V52.967C124.846 53.5724 124.324 54.0568 123.643 54.4201C122.977 54.7833 122.197 54.965 121.304 54.965C120.26 54.965 119.314 54.7001 118.466 54.1703C117.619 53.6254 116.945 52.861 116.445 51.8772C115.961 50.8782 115.719 49.7278 115.719 48.4261ZM125.209 48.4488C125.209 47.4801 124.937 46.7157 124.392 46.1557C123.862 45.5956 123.211 45.3156 122.439 45.3156C121.667 45.3156 121.009 45.5956 120.464 46.1557C119.934 46.7006 119.669 47.4574 119.669 48.4261C119.669 49.3948 119.934 50.1668 120.464 50.742C121.009 51.302 121.667 51.582 122.439 51.582C123.211 51.582 123.862 51.302 124.392 50.742C124.937 50.1819 125.209 49.4175 125.209 48.4488ZM144.411 42.1143V54.7833H140.528V53.0578C140.135 53.6178 139.597 54.0719 138.916 54.4201C138.25 54.7531 137.509 54.9196 136.691 54.9196C135.722 54.9196 134.867 54.7076 134.126 54.2838C133.384 53.8449 132.809 53.2167 132.4 52.3994C131.991 51.582 131.787 50.6209 131.787 49.5159V42.1143H135.647V48.9937C135.647 49.8414 135.866 50.4998 136.305 50.969C136.744 51.4382 137.334 51.6728 138.076 51.6728C138.833 51.6728 139.431 51.4382 139.87 50.969C140.309 50.4998 140.528 49.8414 140.528 48.9937V42.1143H144.411ZM146.427 48.4488C146.427 47.132 146.692 45.9816 147.222 44.9978C147.767 44.0139 148.516 43.2571 149.47 42.7273C150.438 42.1976 151.543 41.9327 152.785 41.9327C154.374 41.9327 155.698 42.3489 156.758 43.1814C157.833 44.0139 158.536 45.187 158.869 46.7006H154.737C154.389 45.7319 153.715 45.2475 152.716 45.2475C152.005 45.2475 151.437 45.5275 151.014 46.0876C150.59 46.6325 150.378 47.4196 150.378 48.4488C150.378 49.4781 150.59 50.2727 151.014 50.8328C151.437 51.3777 152.005 51.6501 152.716 51.6501C153.715 51.6501 154.389 51.1658 154.737 50.1971H158.869C158.536 51.6804 157.833 52.8459 156.758 53.6935C155.683 54.5411 154.359 54.965 152.785 54.965C151.543 54.965 150.438 54.7001 149.47 54.1703C148.516 53.6405 147.767 52.8837 147.222 51.8999C146.692 50.916 146.427 49.7657 146.427 48.4488ZM160.174 48.4261C160.174 47.1244 160.416 45.9816 160.901 44.9978C161.4 44.0139 162.074 43.2571 162.921 42.7273C163.769 42.1976 164.715 41.9327 165.759 41.9327C166.652 41.9327 167.432 42.1143 168.098 42.4776C168.779 42.8409 169.301 43.3176 169.665 43.908V42.1143H173.547V54.7833H169.665V52.9897C169.286 53.58 168.756 54.0568 168.075 54.4201C167.409 54.7833 166.63 54.965 165.737 54.965C164.707 54.965 163.769 54.7001 162.921 54.1703C162.074 53.6254 161.4 52.861 160.901 51.8772C160.416 50.8782 160.174 49.7278 160.174 48.4261ZM169.665 48.4488C169.665 47.4801 169.392 46.7157 168.847 46.1557C168.317 45.5956 167.667 45.3156 166.895 45.3156C166.123 45.3156 165.464 45.5956 164.919 46.1557C164.39 46.7006 164.125 47.4574 164.125 48.4261C164.125 49.3948 164.39 50.1668 164.919 50.742C165.464 51.302 166.123 51.582 166.895 51.582C167.667 51.582 168.317 51.302 168.847 50.742C169.392 50.1819 169.665 49.4175 169.665 48.4488ZM183.417 51.4912V54.7833H181.442C180.034 54.7833 178.937 54.4428 178.149 53.7616C177.362 53.0654 176.969 51.9377 176.969 50.3787V45.3383H175.425V42.1143H176.969V39.0265H180.851V42.1143H183.394V45.3383H180.851V50.4241C180.851 50.8025 180.942 51.075 181.124 51.2415C181.305 51.4079 181.608 51.4912 182.032 51.4912H183.417ZM187.532 40.7975C186.851 40.7975 186.291 40.6007 185.852 40.2071C185.428 39.7985 185.216 39.299 185.216 38.7087C185.216 38.1032 185.428 37.6037 185.852 37.2102C186.291 36.8015 186.851 36.5972 187.532 36.5972C188.198 36.5972 188.743 36.8015 189.167 37.2102C189.606 37.6037 189.825 38.1032 189.825 38.7087C189.825 39.299 189.606 39.7985 189.167 40.2071C188.743 40.6007 188.198 40.7975 187.532 40.7975ZM189.462 42.1143V54.7833H185.579V42.1143H189.462ZM198.042 54.965C196.801 54.965 195.681 54.7001 194.682 54.1703C193.698 53.6405 192.919 52.8837 192.344 51.8999C191.783 50.916 191.503 49.7657 191.503 48.4488C191.503 47.1471 191.791 46.0043 192.366 45.0205C192.941 44.0215 193.728 43.2571 194.727 42.7273C195.726 42.1976 196.847 41.9327 198.088 41.9327C199.329 41.9327 200.449 42.1976 201.448 42.7273C202.447 43.2571 203.234 44.0215 203.809 45.0205C204.384 46.0043 204.672 47.1471 204.672 48.4488C204.672 49.7505 204.377 50.9009 203.787 51.8999C203.211 52.8837 202.417 53.6405 201.403 54.1703C200.404 54.7001 199.283 54.965 198.042 54.965ZM198.042 51.6047C198.784 51.6047 199.412 51.3323 199.927 50.7874C200.457 50.2425 200.721 49.4629 200.721 48.4488C200.721 47.4347 200.464 46.6552 199.949 46.1103C199.45 45.5654 198.829 45.2929 198.088 45.2929C197.331 45.2929 196.703 45.5654 196.203 46.1103C195.704 46.64 195.454 47.4196 195.454 48.4488C195.454 49.4629 195.696 50.2425 196.181 50.7874C196.68 51.3323 197.301 51.6047 198.042 51.6047ZM214.451 41.9781C215.934 41.9781 217.115 42.4624 217.993 43.4312C218.886 44.3847 219.333 45.7016 219.333 47.3817V54.7833H215.473V47.9039C215.473 47.0563 215.253 46.3979 214.814 45.9286C214.375 45.4594 213.785 45.2248 213.043 45.2248C212.302 45.2248 211.711 45.4594 211.273 45.9286C210.834 46.3979 210.614 47.0563 210.614 47.9039V54.7833H206.732V42.1143H210.614V43.7944C211.008 43.2344 211.537 42.7954 212.203 42.4776C212.869 42.1446 213.619 41.9781 214.451 41.9781Z" fill="#57B8E8"/>
<circle cx="324.798" cy="49.3061" r="31.5338" fill="#57B8E8"/>
<path d="M312.395 63.8116V43.6299M335.94 33.5391V40.2663V33.5391ZM335.94 63.8116V46.9935V63.8116ZM324.167 33.5391V53.7207V33.5391ZM324.167 63.8116V60.448V63.8116ZM312.395 33.5391V36.9027V33.5391Z" stroke="#F9F9F9" stroke-width="3.3636" stroke-linecap="round"/>
<path d="M332.577 43.63C332.577 45.4876 334.082 46.9936 335.94 46.9936C337.798 46.9936 339.304 45.4876 339.304 43.63C339.304 41.7723 337.798 40.2664 335.94 40.2664C334.082 40.2664 332.577 41.7723 332.577 43.63Z" stroke="#F9F9F9" stroke-width="3.3636" stroke-linecap="round"/>
<path d="M320.804 57.0844C320.804 58.942 322.309 60.448 324.167 60.448C326.025 60.448 327.531 58.942 327.531 57.0844C327.531 55.2267 326.025 53.7208 324.167 53.7208C322.309 53.7208 320.804 55.2267 320.804 57.0844Z" stroke="#F9F9F9" stroke-width="3.3636" stroke-linecap="round"/>
<path d="M309.031 40.2664C309.031 42.124 310.537 43.63 312.395 43.63C314.252 43.63 315.758 42.124 315.758 40.2664C315.758 38.4087 314.252 36.9028 312.395 36.9028C310.537 36.9028 309.031 38.4087 309.031 40.2664Z" stroke="#F9F9F9" stroke-width="3.3636" stroke-linecap="round"/>
<path d="M376.758 27.4216V30.6456H381.957V33.6426H376.758V37.1391H382.638V40.2496H372.875V24.3111H382.638V27.4216H376.758ZM401.324 27.4443C402.898 27.4443 404.147 27.9211 405.071 28.8747C406.009 29.8283 406.478 31.1527 406.478 32.848V40.2496H402.618V33.3702C402.618 32.5528 402.399 31.9247 401.96 31.4857C401.536 31.0316 400.946 30.8046 400.189 30.8046C399.432 30.8046 398.834 31.0316 398.395 31.4857C397.972 31.9247 397.76 32.5528 397.76 33.3702V40.2496H393.9V33.3702C393.9 32.5528 393.681 31.9247 393.242 31.4857C392.818 31.0316 392.227 30.8046 391.471 30.8046C390.714 30.8046 390.116 31.0316 389.677 31.4857C389.253 31.9247 389.041 32.5528 389.041 33.3702V40.2496H385.159V27.5806H389.041V29.1699C389.435 28.6401 389.949 28.2238 390.585 27.9211C391.221 27.6033 391.94 27.4443 392.742 27.4443C393.696 27.4443 394.543 27.6487 395.285 28.0574C396.042 28.466 396.632 29.0488 397.056 29.8056C397.495 29.1093 398.093 28.5417 398.85 28.1028C399.606 27.6638 400.431 27.4443 401.324 27.4443ZM413.076 29.3742C413.454 28.7839 413.977 28.3071 414.643 27.9438C415.309 27.5806 416.088 27.3989 416.981 27.3989C418.025 27.3989 418.971 27.6638 419.819 28.1936C420.667 28.7233 421.333 29.4802 421.817 30.464C422.317 31.4479 422.566 32.5906 422.566 33.8924C422.566 35.1941 422.317 36.3444 421.817 37.3434C421.333 38.3273 420.667 39.0917 419.819 39.6366C418.971 40.1663 418.025 40.4312 416.981 40.4312C416.103 40.4312 415.324 40.2496 414.643 39.8863C413.977 39.523 413.454 39.0538 413.076 38.4786V46.2889H409.193V27.5806H413.076V29.3742ZM418.616 33.8924C418.616 32.9236 418.343 32.1668 417.798 31.6219C417.269 31.0619 416.61 30.7819 415.823 30.7819C415.051 30.7819 414.393 31.0619 413.848 31.6219C413.318 32.182 413.053 32.9463 413.053 33.9151C413.053 34.8838 413.318 35.6482 413.848 36.2082C414.393 36.7682 415.051 37.0483 415.823 37.0483C416.595 37.0483 417.254 36.7682 417.798 36.2082C418.343 35.633 418.616 34.8611 418.616 33.8924ZM430.37 40.4312C429.129 40.4312 428.009 40.1663 427.01 39.6366C426.026 39.1068 425.246 38.35 424.671 37.3661C424.111 36.3823 423.831 35.2319 423.831 33.9151C423.831 32.6134 424.119 31.4706 424.694 30.4867C425.269 29.4877 426.056 28.7233 427.055 28.1936C428.054 27.6638 429.174 27.3989 430.415 27.3989C431.657 27.3989 432.777 27.6638 433.776 28.1936C434.775 28.7233 435.562 29.4877 436.137 30.4867C436.712 31.4706 437 32.6134 437 33.9151C437 35.2168 436.705 36.3671 436.114 37.3661C435.539 38.35 434.744 39.1068 433.73 39.6366C432.731 40.1663 431.611 40.4312 430.37 40.4312ZM430.37 37.071C431.112 37.071 431.74 36.7985 432.255 36.2536C432.784 35.7087 433.049 34.9292 433.049 33.9151C433.049 32.9009 432.792 32.1214 432.277 31.5765C431.778 31.0316 431.157 30.7592 430.415 30.7592C429.659 30.7592 429.031 31.0316 428.531 31.5765C428.032 32.1063 427.782 32.8858 427.782 33.9151C427.782 34.9292 428.024 35.7087 428.508 36.2536C429.008 36.7985 429.628 37.071 430.37 37.071ZM457.246 27.5806L453.817 40.2496H449.526L447.528 32.0306L445.462 40.2496H441.194L437.743 27.5806H441.625L443.419 36.6396L445.553 27.5806H449.662L451.819 36.5942L453.59 27.5806H457.246ZM470.669 33.7107C470.669 34.074 470.646 34.4524 470.601 34.8459H461.814C461.874 35.633 462.124 36.2385 462.563 36.6623C463.017 37.071 463.57 37.2753 464.221 37.2753C465.189 37.2753 465.863 36.8666 466.241 36.0493H470.373C470.162 36.8818 469.776 37.631 469.216 38.297C468.671 38.963 467.982 39.4852 467.149 39.8636C466.317 40.242 465.386 40.4312 464.357 40.4312C463.116 40.4312 462.011 40.1663 461.042 39.6366C460.073 39.1068 459.316 38.35 458.772 37.3661C458.227 36.3823 457.954 35.2319 457.954 33.9151C457.954 32.5982 458.219 31.4479 458.749 30.464C459.294 29.4802 460.051 28.7233 461.019 28.1936C461.988 27.6638 463.101 27.3989 464.357 27.3989C465.583 27.3989 466.673 27.6562 467.626 28.1709C468.58 28.6855 469.322 29.4196 469.851 30.3732C470.396 31.3268 470.669 32.4393 470.669 33.7107ZM466.695 32.689C466.695 32.023 466.468 31.4933 466.014 31.0997C465.56 30.7062 464.993 30.5094 464.311 30.5094C463.661 30.5094 463.108 30.6986 462.654 31.077C462.215 31.4554 461.943 31.9928 461.837 32.689H466.695ZM476.599 29.6921C477.053 28.9958 477.621 28.4509 478.302 28.0574C478.983 27.6487 479.74 27.4443 480.573 27.4443V31.5538H479.505C478.537 31.5538 477.81 31.7657 477.326 32.1895C476.841 32.5982 476.599 33.3248 476.599 34.3692V40.2496H472.717V27.5806H476.599V29.6921ZM498.594 27.4443C500.168 27.4443 501.417 27.9211 502.34 28.8747C503.278 29.8283 503.748 31.1527 503.748 32.848V40.2496H499.888V33.3702C499.888 32.5528 499.668 31.9247 499.229 31.4857C498.806 31.0316 498.215 30.8046 497.458 30.8046C496.702 30.8046 496.104 31.0316 495.665 31.4857C495.241 31.9247 495.029 32.5528 495.029 33.3702V40.2496H491.169V33.3702C491.169 32.5528 490.95 31.9247 490.511 31.4857C490.087 31.0316 489.497 30.8046 488.74 30.8046C487.983 30.8046 487.385 31.0316 486.946 31.4857C486.523 31.9247 486.311 32.5528 486.311 33.3702V40.2496H482.428V27.5806H486.311V29.1699C486.704 28.6401 487.219 28.2238 487.855 27.9211C488.49 27.6033 489.209 27.4443 490.011 27.4443C490.965 27.4443 491.813 27.6487 492.554 28.0574C493.311 28.466 493.901 29.0488 494.325 29.8056C494.764 29.1093 495.362 28.5417 496.119 28.1028C496.876 27.6638 497.701 27.4443 498.594 27.4443ZM518.405 33.7107C518.405 34.074 518.383 34.4524 518.337 34.8459H509.551C509.611 35.633 509.861 36.2385 510.3 36.6623C510.754 37.071 511.306 37.2753 511.957 37.2753C512.926 37.2753 513.6 36.8666 513.978 36.0493H518.11C517.898 36.8818 517.512 37.631 516.952 38.297C516.407 38.963 515.719 39.4852 514.886 39.8636C514.054 40.242 513.123 40.4312 512.094 40.4312C510.852 40.4312 509.747 40.1663 508.779 39.6366C507.81 39.1068 507.053 38.35 506.508 37.3661C505.963 36.3823 505.691 35.2319 505.691 33.9151C505.691 32.5982 505.956 31.4479 506.486 30.464C507.03 29.4802 507.787 28.7233 508.756 28.1936C509.725 27.6638 510.837 27.3989 512.094 27.3989C513.32 27.3989 514.409 27.6562 515.363 28.1709C516.317 28.6855 517.058 29.4196 517.588 30.3732C518.133 31.3268 518.405 32.4393 518.405 33.7107ZM514.432 32.689C514.432 32.023 514.205 31.4933 513.751 31.0997C513.297 30.7062 512.729 30.5094 512.048 30.5094C511.397 30.5094 510.845 30.6986 510.391 31.077C509.952 31.4554 509.679 31.9928 509.573 32.689H514.432ZM528.173 27.4443C529.656 27.4443 530.837 27.9287 531.715 28.8974C532.608 29.851 533.054 31.1678 533.054 32.848V40.2496H529.195V33.3702C529.195 32.5225 528.975 31.8641 528.536 31.3949C528.097 30.9257 527.507 30.6911 526.765 30.6911C526.024 30.6911 525.433 30.9257 524.994 31.3949C524.555 31.8641 524.336 32.5225 524.336 33.3702V40.2496H520.454V27.5806H524.336V29.2607C524.73 28.7006 525.259 28.2617 525.925 27.9438C526.591 27.6108 527.341 27.4443 528.173 27.4443ZM542.813 36.9574V40.2496H540.838C539.43 40.2496 538.333 39.909 537.546 39.2279C536.759 38.5316 536.365 37.404 536.365 35.8449V30.8046H534.821V27.5806H536.365V24.4928H540.248V27.5806H542.791V30.8046H540.248V35.8903C540.248 36.2687 540.339 36.5412 540.52 36.7077C540.702 36.8742 541.005 36.9574 541.428 36.9574H542.813ZM372.103 67.8924C372.103 66.5906 372.346 65.4479 372.83 64.464C373.33 63.4802 374.003 62.7233 374.851 62.1936C375.698 61.6638 376.644 61.3989 377.689 61.3989C378.582 61.3989 379.361 61.5806 380.027 61.9438C380.708 62.3071 381.231 62.7839 381.594 63.3742V61.5806H385.476V74.2496H381.594V72.4559C381.215 73.0462 380.686 73.523 380.005 73.8863C379.339 74.2496 378.559 74.4312 377.666 74.4312C376.637 74.4312 375.698 74.1663 374.851 73.6366C374.003 73.0917 373.33 72.3273 372.83 71.3434C372.346 70.3444 372.103 69.1941 372.103 67.8924ZM381.594 67.9151C381.594 66.9463 381.321 66.182 380.777 65.6219C380.247 65.0619 379.596 64.7819 378.824 64.7819C378.052 64.7819 377.394 65.0619 376.849 65.6219C376.319 66.1668 376.054 66.9236 376.054 67.8924C376.054 68.8611 376.319 69.633 376.849 70.2082C377.394 70.7682 378.052 71.0483 378.824 71.0483C379.596 71.0483 380.247 70.7682 380.777 70.2082C381.321 69.6482 381.594 68.8838 381.594 67.9151ZM396.005 61.4443C397.488 61.4443 398.669 61.9287 399.546 62.8974C400.439 63.851 400.886 65.1678 400.886 66.848V74.2496H397.026V67.3702C397.026 66.5225 396.807 65.8641 396.368 65.3949C395.929 64.9257 395.339 64.6911 394.597 64.6911C393.855 64.6911 393.265 64.9257 392.826 65.3949C392.387 65.8641 392.168 66.5225 392.168 67.3702V74.2496H388.285V61.5806H392.168V63.2607C392.561 62.7006 393.091 62.2617 393.757 61.9438C394.423 61.6108 395.172 61.4443 396.005 61.4443ZM402.812 67.8924C402.812 66.5906 403.054 65.4479 403.539 64.464C404.038 63.4802 404.712 62.7233 405.559 62.1936C406.407 61.6638 407.353 61.3989 408.397 61.3989C409.23 61.3989 409.987 61.573 410.668 61.9211C411.364 62.2693 411.909 62.7385 412.302 63.3288V57.4484H416.185V74.2496H412.302V72.4332C411.939 73.0387 411.417 73.523 410.736 73.8863C410.07 74.2496 409.29 74.4312 408.397 74.4312C407.353 74.4312 406.407 74.1663 405.559 73.6366C404.712 73.0917 404.038 72.3273 403.539 71.3434C403.054 70.3444 402.812 69.1941 402.812 67.8924ZM412.302 67.9151C412.302 66.9463 412.03 66.182 411.485 65.6219C410.955 65.0619 410.304 64.7819 409.532 64.7819C408.761 64.7819 408.102 65.0619 407.557 65.6219C407.027 66.1668 406.763 66.9236 406.763 67.8924C406.763 68.8611 407.027 69.633 407.557 70.2082C408.102 70.7682 408.761 71.0483 409.532 71.0483C410.304 71.0483 410.955 70.7682 411.485 70.2082C412.03 69.6482 412.302 68.8838 412.302 67.9151ZM423.147 66.2577C423.147 64.6835 423.487 63.2834 424.168 62.0574C424.849 60.8162 425.795 59.855 427.006 59.1739C428.232 58.4776 429.617 58.1295 431.161 58.1295C433.053 58.1295 434.673 58.629 436.02 59.628C437.367 60.627 438.268 61.9892 438.722 63.7148H434.453C434.135 63.0488 433.681 62.5417 433.091 62.1936C432.516 61.8454 431.857 61.6714 431.116 61.6714C429.92 61.6714 428.951 62.0876 428.21 62.9201C427.468 63.7526 427.097 64.8651 427.097 66.2577C427.097 67.6502 427.468 68.7627 428.21 69.5952C428.951 70.4277 429.92 70.8439 431.116 70.8439C431.857 70.8439 432.516 70.6699 433.091 70.3217C433.681 69.9736 434.135 69.4665 434.453 68.8005H438.722C438.268 70.5261 437.367 71.8883 436.02 72.8873C434.673 73.8712 433.053 74.3631 431.161 74.3631C429.617 74.3631 428.232 74.0225 427.006 73.3414C425.795 72.6451 424.849 71.684 424.168 70.458C423.487 69.2319 423.147 67.8318 423.147 66.2577ZM446.866 74.4312C445.625 74.4312 444.505 74.1663 443.506 73.6366C442.522 73.1068 441.743 72.35 441.167 71.3661C440.607 70.3823 440.327 69.2319 440.327 67.9151C440.327 66.6134 440.615 65.4706 441.19 64.4867C441.765 63.4877 442.552 62.7233 443.551 62.1936C444.55 61.6638 445.67 61.3989 446.912 61.3989C448.153 61.3989 449.273 61.6638 450.272 62.1936C451.271 62.7233 452.058 63.4877 452.633 64.4867C453.208 65.4706 453.496 66.6134 453.496 67.9151C453.496 69.2168 453.201 70.3671 452.61 71.3661C452.035 72.35 451.241 73.1068 450.226 73.6366C449.227 74.1663 448.107 74.4312 446.866 74.4312ZM446.866 71.071C447.608 71.071 448.236 70.7985 448.751 70.2536C449.28 69.7087 449.545 68.9292 449.545 67.9151C449.545 66.9009 449.288 66.1214 448.773 65.5765C448.274 65.0316 447.653 64.7592 446.912 64.7592C446.155 64.7592 445.527 65.0316 445.027 65.5765C444.528 66.1063 444.278 66.8858 444.278 67.9151C444.278 68.9292 444.52 69.7087 445.004 70.2536C445.504 70.7985 446.124 71.071 446.866 71.071ZM463.275 61.4443C464.758 61.4443 465.939 61.9287 466.817 62.8974C467.71 63.851 468.156 65.1678 468.156 66.848V74.2496H464.297V67.3702C464.297 66.5225 464.077 65.8641 463.638 65.3949C463.199 64.9257 462.609 64.6911 461.867 64.6911C461.126 64.6911 460.535 64.9257 460.096 65.3949C459.657 65.8641 459.438 66.5225 459.438 67.3702V74.2496H455.556V61.5806H459.438V63.2607C459.832 62.7006 460.361 62.2617 461.027 61.9438C461.693 61.6108 462.443 61.4443 463.275 61.4443ZM477.915 70.9574V74.2496H475.94C474.532 74.2496 473.435 73.909 472.648 73.2279C471.861 72.5316 471.467 71.404 471.467 69.8449V64.8046H469.923V61.5806H471.467V58.4928H475.35V61.5806H477.893V64.8046H475.35V69.8903C475.35 70.2687 475.441 70.5412 475.622 70.7077C475.804 70.8742 476.107 70.9574 476.53 70.9574H477.915ZM483.96 63.6921C484.415 62.9958 484.982 62.4509 485.663 62.0574C486.344 61.6487 487.101 61.4443 487.934 61.4443V65.5538H486.867C485.898 65.5538 485.171 65.7657 484.687 66.1895C484.203 66.5982 483.96 67.3248 483.96 68.3692V74.2496H480.078V61.5806H483.96V63.6921ZM495.556 74.4312C494.315 74.4312 493.195 74.1663 492.196 73.6366C491.212 73.1068 490.433 72.35 489.858 71.3661C489.297 70.3823 489.017 69.2319 489.017 67.9151C489.017 66.6134 489.305 65.4706 489.88 64.4867C490.455 63.4877 491.242 62.7233 492.241 62.1936C493.24 61.6638 494.361 61.3989 495.602 61.3989C496.843 61.3989 497.963 61.6638 498.962 62.1936C499.961 62.7233 500.748 63.4877 501.323 64.4867C501.898 65.4706 502.186 66.6134 502.186 67.9151C502.186 69.2168 501.891 70.3671 501.3 71.3661C500.725 72.35 499.931 73.1068 498.917 73.6366C497.918 74.1663 496.797 74.4312 495.556 74.4312ZM495.556 71.071C496.298 71.071 496.926 70.7985 497.441 70.2536C497.971 69.7087 498.235 68.9292 498.235 67.9151C498.235 66.9009 497.978 66.1214 497.463 65.5765C496.964 65.0316 496.343 64.7592 495.602 64.7592C494.845 64.7592 494.217 65.0316 493.717 65.5765C493.218 66.1063 492.968 66.8858 492.968 67.9151C492.968 68.9292 493.21 69.7087 493.695 70.2536C494.194 70.7985 494.815 71.071 495.556 71.071ZM508.128 57.4484V74.2496H504.246V57.4484H508.128Z" fill="#57B8E8"/>
<circle cx="656.533" cy="46.7834" r="31.5338" fill="#57B8E8"/>
<path d="M669.759 40.2075C669.996 39.377 670.047 38.5046 669.909 37.652C669.772 36.7995 669.448 35.9876 668.962 35.2738C668.476 34.56 667.839 33.9618 667.096 33.5213C666.353 33.0809 665.523 32.8091 664.663 32.7252C664.318 31.7356 663.674 30.8778 662.82 30.2703C661.966 29.6629 660.945 29.3359 659.897 29.3347C658.652 29.3389 657.453 29.8065 656.533 30.6465C655.614 29.8065 654.415 29.3389 653.17 29.3347C650.982 29.3347 649.117 30.7322 648.419 32.7235C647.558 32.8054 646.725 33.0757 645.98 33.5153C645.235 33.955 644.597 34.5531 644.109 35.2674C643.621 35.9816 643.296 36.7944 643.158 37.6482C643.019 38.502 643.071 39.3757 643.308 40.2075C642.228 40.7819 641.324 41.6379 640.692 42.6846C640.059 43.7313 639.722 44.9297 639.715 46.1527C639.715 47.9606 640.435 49.6609 641.686 50.9155C641.495 51.5528 641.398 52.2145 641.397 52.8799C641.397 56.1712 643.772 58.9175 646.957 59.4961C647.425 60.5296 648.18 61.4067 649.132 62.0228C650.085 62.6389 651.194 62.968 652.329 62.9707C653.975 62.9707 655.464 62.2862 656.533 61.1897C657.079 61.7528 657.733 62.2007 658.455 62.5066C659.177 62.8125 659.954 62.9703 660.738 62.9707C661.87 62.9686 662.978 62.6409 663.929 62.0266C664.881 61.4123 665.635 60.5374 666.103 59.5062C667.041 59.3408 667.934 58.9782 668.722 58.4423C669.51 57.9065 670.175 57.2097 670.674 56.3978C671.172 55.5859 671.493 54.6775 671.615 53.7325C671.737 52.7875 671.657 51.8273 671.38 50.9155C672.006 50.29 672.502 49.5475 672.84 48.7302C673.178 47.913 673.352 47.0371 673.351 46.1527C673.345 44.9297 673.008 43.7313 672.375 42.6846C671.743 41.6379 670.839 40.7819 669.759 40.2075ZM652.329 59.6071C651.133 59.6071 650.092 58.7595 649.857 57.5923L649.5 56.2435H648.124C646.269 56.2435 644.761 54.7349 644.761 52.8799C644.761 52.2879 644.904 51.7329 645.186 51.23L645.953 49.8577L644.635 49C644.158 48.6929 643.766 48.2715 643.495 47.7741C643.223 47.2768 643.08 46.7194 643.079 46.1527C643.079 44.5096 644.295 43.0851 645.908 42.8362L648.755 42.3989L646.974 40.1352C646.657 39.7263 646.473 39.2299 646.447 38.713C646.421 38.1962 646.555 37.6839 646.83 37.2454C647.104 36.8069 647.507 36.4634 647.984 36.2614C648.46 36.0593 648.987 36.0085 649.493 36.1157L651.488 36.41V34.3801C651.488 33.934 651.665 33.5062 651.981 33.1908C652.296 32.8754 652.724 32.6983 653.17 32.6983C653.616 32.6983 654.044 32.8754 654.359 33.1908C654.674 33.5062 654.852 33.934 654.852 34.3801V57.0844C654.852 58.4752 653.72 59.6071 652.329 59.6071ZM668.432 48.9983L667.114 49.856L667.88 51.2284C668.163 51.7329 668.306 52.2879 668.306 52.8799C668.306 54.7349 666.797 56.2435 664.858 56.2435H663.483L663.21 57.5923C663.093 58.1612 662.782 58.6722 662.332 59.0392C661.882 59.4062 661.319 59.6067 660.738 59.6071C659.347 59.6071 658.215 58.4752 658.215 57.0844V34.3801C658.215 33.4517 658.969 32.6983 659.897 32.6983C660.825 32.6983 661.579 33.4517 661.579 34.4642V36.4941L663.573 36.1157C664.08 36.0085 664.607 36.0593 665.083 36.2614C665.559 36.4634 665.962 36.8069 666.237 37.2454C666.512 37.6839 666.645 38.1962 666.62 38.713C666.594 39.2299 666.41 39.7263 666.093 40.1352L664.312 42.4006L667.159 42.8378C667.947 42.9654 668.664 43.3688 669.182 43.9759C669.7 44.583 669.986 45.3545 669.988 46.1527C669.988 47.3013 669.406 48.3642 668.432 48.9983Z" fill="#F9F9F9"/>
<path d="M708.493 41.9554V45.1794H713.693V48.1764H708.493V51.6728H714.374V54.7833H704.611V38.8449H714.374V41.9554H708.493ZM716.122 48.4261C716.122 47.1244 716.364 45.9816 716.849 44.9978C717.348 44.0139 718.022 43.2571 718.869 42.7273C719.717 42.1976 720.663 41.9327 721.708 41.9327C722.601 41.9327 723.38 42.1143 724.046 42.4776C724.727 42.8409 725.249 43.3176 725.613 43.908V42.1143H729.495V54.7833H725.613V52.9897C725.234 53.58 724.704 54.0568 724.023 54.4201C723.357 54.7833 722.578 54.965 721.685 54.965C720.656 54.965 719.717 54.7001 718.869 54.1703C718.022 53.6254 717.348 52.861 716.849 51.8772C716.364 50.8782 716.122 49.7278 716.122 48.4261ZM725.613 48.4488C725.613 47.4801 725.34 46.7157 724.795 46.1557C724.266 45.5956 723.615 45.3156 722.843 45.3156C722.071 45.3156 721.412 45.5956 720.867 46.1557C720.338 46.7006 720.073 47.4574 720.073 48.4261C720.073 49.3948 720.338 50.1668 720.867 50.742C721.412 51.302 722.071 51.582 722.843 51.582C723.615 51.582 724.266 51.302 724.795 50.742C725.34 50.1819 725.613 49.4175 725.613 48.4488ZM737.458 54.965C736.353 54.965 735.369 54.7758 734.506 54.3974C733.643 54.0189 732.962 53.5043 732.463 52.8535C731.963 52.1875 731.683 51.4458 731.623 50.6284H735.46C735.505 51.0674 735.71 51.4231 736.073 51.6955C736.436 51.968 736.883 52.1042 737.412 52.1042C737.897 52.1042 738.268 52.0134 738.525 51.8318C738.797 51.635 738.934 51.3852 738.934 51.0825C738.934 50.7193 738.744 50.4544 738.366 50.2879C737.988 50.1062 737.374 49.9095 736.527 49.6976C735.619 49.4856 734.862 49.2662 734.256 49.0391C733.651 48.797 733.129 48.4261 732.69 47.9266C732.251 47.412 732.031 46.7233 732.031 45.8605C732.031 45.134 732.228 44.4756 732.622 43.8852C733.03 43.2798 733.621 42.803 734.393 42.4549C735.18 42.1067 736.111 41.9327 737.185 41.9327C738.775 41.9327 740.023 42.3262 740.932 43.1133C741.855 43.9004 742.385 44.9448 742.521 46.2465H738.934C738.873 45.8075 738.676 45.4594 738.343 45.2021C738.025 44.9448 737.602 44.8161 737.072 44.8161C736.618 44.8161 736.27 44.9069 736.027 45.0886C735.785 45.2551 735.664 45.4897 735.664 45.7924C735.664 46.1557 735.853 46.4281 736.232 46.6098C736.625 46.7914 737.231 46.973 738.048 47.1547C738.986 47.3969 739.751 47.639 740.341 47.8812C740.932 48.1083 741.446 48.4867 741.885 49.0164C742.339 49.5311 742.574 50.2273 742.589 51.1052C742.589 51.8469 742.377 52.5129 741.953 53.1032C741.545 53.6784 740.947 54.1325 740.16 54.4655C739.388 54.7985 738.487 54.965 737.458 54.965ZM756.907 48.2445C756.907 48.6077 756.884 48.9862 756.839 49.3797H748.052C748.113 50.1668 748.362 50.7722 748.801 51.196C749.255 51.6047 749.808 51.8091 750.459 51.8091C751.427 51.8091 752.101 51.4004 752.479 50.583H756.611C756.4 51.4155 756.014 52.1648 755.454 52.8308C754.909 53.4967 754.22 54.0189 753.387 54.3974C752.555 54.7758 751.624 54.965 750.595 54.965C749.354 54.965 748.249 54.7001 747.28 54.1703C746.311 53.6405 745.554 52.8837 745.01 51.8999C744.465 50.916 744.192 49.7657 744.192 48.4488C744.192 47.132 744.457 45.9816 744.987 44.9978C745.532 44.0139 746.289 43.2571 747.257 42.7273C748.226 42.1976 749.339 41.9327 750.595 41.9327C751.821 41.9327 752.911 42.19 753.864 42.7046C754.818 43.2193 755.56 43.9534 756.089 44.9069C756.634 45.8605 756.907 46.973 756.907 48.2445ZM752.933 47.2228C752.933 46.5568 752.706 46.027 752.252 45.6335C751.798 45.2399 751.231 45.0432 750.549 45.0432C749.899 45.0432 749.346 45.2324 748.892 45.6108C748.453 45.9892 748.181 46.5265 748.075 47.2228H752.933ZM769.533 54.965C768.292 54.965 767.172 54.7001 766.173 54.1703C765.189 53.6405 764.409 52.8837 763.834 51.8999C763.274 50.916 762.994 49.7657 762.994 48.4488C762.994 47.1471 763.282 46.0043 763.857 45.0205C764.432 44.0215 765.219 43.2571 766.218 42.7273C767.217 42.1976 768.337 41.9327 769.579 41.9327C770.82 41.9327 771.94 42.1976 772.939 42.7273C773.938 43.2571 774.725 44.0215 775.3 45.0205C775.875 46.0043 776.163 47.1471 776.163 48.4488C776.163 49.7505 775.868 50.9009 775.277 51.8999C774.702 52.8837 773.907 53.6405 772.893 54.1703C771.894 54.7001 770.774 54.965 769.533 54.965ZM769.533 51.6047C770.275 51.6047 770.903 51.3323 771.418 50.7874C771.947 50.2425 772.212 49.4629 772.212 48.4488C772.212 47.4347 771.955 46.6552 771.44 46.1103C770.941 45.5654 770.32 45.2929 769.579 45.2929C768.822 45.2929 768.194 45.5654 767.694 46.1103C767.195 46.64 766.945 47.4196 766.945 48.4488C766.945 49.4629 767.187 50.2425 767.671 50.7874C768.171 51.3323 768.791 51.6047 769.533 51.6047ZM784.58 45.3383H782.491V54.7833H778.608V45.3383H777.201V42.1143H778.608V41.751C778.608 40.192 779.055 39.0114 779.948 38.2092C780.841 37.3918 782.15 36.9831 783.876 36.9831C784.163 36.9831 784.375 36.9907 784.512 37.0058V40.298C783.77 40.2526 783.248 40.3585 782.945 40.6158C782.642 40.8731 782.491 41.3348 782.491 42.0008V42.1143H784.58V45.3383ZM809.265 38.8449V54.7833H805.383V45.2248L801.818 54.7833H798.685L795.098 45.2021V54.7833H791.215V38.8449H795.802L800.274 49.8792L804.702 38.8449H809.265ZM814.01 40.7975C813.329 40.7975 812.769 40.6007 812.33 40.2071C811.906 39.7985 811.694 39.299 811.694 38.7087C811.694 38.1032 811.906 37.6037 812.33 37.2102C812.769 36.8015 813.329 36.5972 814.01 36.5972C814.676 36.5972 815.221 36.8015 815.645 37.2102C816.083 37.6037 816.303 38.1032 816.303 38.7087C816.303 39.299 816.083 39.7985 815.645 40.2071C815.221 40.6007 814.676 40.7975 814.01 40.7975ZM815.94 42.1143V54.7833H812.057V42.1143H815.94ZM826.473 41.9781C827.956 41.9781 829.137 42.4624 830.015 43.4312C830.908 44.3847 831.354 45.7016 831.354 47.3817V54.7833H827.494V47.9039C827.494 47.0563 827.275 46.3979 826.836 45.9286C826.397 45.4594 825.807 45.2248 825.065 45.2248C824.323 45.2248 823.733 45.4594 823.294 45.9286C822.855 46.3979 822.636 47.0563 822.636 47.9039V54.7833H818.753V42.1143H822.636V43.7944C823.029 43.2344 823.559 42.7954 824.225 42.4776C824.891 42.1446 825.64 41.9781 826.473 41.9781ZM833.28 48.4261C833.28 47.1244 833.522 45.9816 834.007 44.9978C834.506 44.0139 835.18 43.2571 836.027 42.7273C836.875 42.1976 837.821 41.9327 838.865 41.9327C839.698 41.9327 840.455 42.1067 841.136 42.4549C841.832 42.803 842.377 43.2722 842.77 43.8625V37.9821H846.653V54.7833H842.77V52.967C842.407 53.5724 841.885 54.0568 841.204 54.4201C840.538 54.7833 839.758 54.965 838.865 54.965C837.821 54.965 836.875 54.7001 836.027 54.1703C835.18 53.6254 834.506 52.861 834.007 51.8772C833.522 50.8782 833.28 49.7278 833.28 48.4261ZM842.77 48.4488C842.77 47.4801 842.498 46.7157 841.953 46.1557C841.423 45.5956 840.773 45.3156 840.001 45.3156C839.229 45.3156 838.57 45.5956 838.025 46.1557C837.496 46.7006 837.231 47.4574 837.231 48.4261C837.231 49.3948 837.496 50.1668 838.025 50.742C838.57 51.302 839.229 51.582 840.001 51.582C840.773 51.582 841.423 51.302 841.953 50.742C842.498 50.1819 842.77 49.4175 842.77 48.4488Z" fill="#57B8E8"/>
</svg>
