<svg width="64" height="64" viewBox="0 0 64 64" fill="none" xmlns="http://www.w3.org/2000/svg">
<circle cx="31.5333" cy="31.7834" r="31.5338" fill="#57B8E8"/>
<path d="M44.759 25.2075C44.9957 24.377 45.047 23.5046 44.9093 22.652C44.7716 21.7995 44.4483 20.9876 43.9621 20.2738C43.476 19.56 42.839 18.9618 42.0961 18.5213C41.3533 18.0809 40.5227 17.8091 39.6632 17.7252C39.3183 16.7356 38.6743 15.8778 37.8204 15.2703C36.9665 14.6629 35.9449 14.3359 34.897 14.3347C33.6517 14.3389 32.4526 14.8065 31.5333 15.6465C30.6141 14.8065 29.415 14.3389 28.1697 14.3347C25.9817 14.3347 24.1166 15.7322 23.4187 17.7235C22.5576 17.8054 21.7252 18.0757 20.9803 18.5153C20.2355 18.955 19.5965 19.5531 19.1087 20.2674C18.621 20.9816 18.2963 21.7944 18.1579 22.6482C18.0195 23.502 18.0706 24.3757 18.3077 25.2075C17.228 25.7819 16.324 26.6379 15.6915 27.6846C15.059 28.7313 14.7217 29.9297 14.7153 31.1527C14.7153 32.9606 15.4351 34.6609 16.6864 35.9155C16.495 36.5528 16.3975 37.2145 16.3971 37.8799C16.3971 41.1712 18.7718 43.9175 21.9572 44.4961C22.4248 45.5296 23.1799 46.4067 24.1324 47.0228C25.0849 47.6389 26.1945 47.968 27.3288 47.9707C28.9753 47.9707 30.4637 47.2862 31.5333 46.1897C32.0793 46.7528 32.7327 47.2007 33.455 47.5066C34.1772 47.8125 34.9535 47.9703 35.7379 47.9707C36.8702 47.9686 37.978 47.6409 38.9293 47.0266C39.8805 46.4123 40.635 45.5374 41.1028 44.5062C42.0412 44.3407 42.9338 43.9782 43.7217 43.4423C44.5096 42.9065 45.1749 42.2097 45.6737 41.3978C46.1724 40.5859 46.4933 39.6775 46.6151 38.7325C46.7369 37.7875 46.6569 36.8273 46.3803 35.9155C47.0056 35.29 47.5015 34.5475 47.8397 33.7302C48.1779 32.913 48.3518 32.0371 48.3514 31.1527C48.345 29.9297 48.0077 28.7313 47.3752 27.6846C46.7427 26.6379 45.8387 25.7819 44.759 25.2075ZM27.3288 44.6071C26.1331 44.6071 25.092 43.7595 24.8566 42.5923L24.5001 41.2435H23.1243C21.2693 41.2435 19.7607 39.7349 19.7607 37.8799C19.7607 37.2879 19.9037 36.7329 20.1862 36.23L20.9531 34.8577L19.6346 34C19.1583 33.6929 18.7664 33.2715 18.4947 32.7742C18.223 32.2768 18.08 31.7194 18.0789 31.1527C18.0789 29.5096 19.2949 28.0851 20.9077 27.8362L23.755 27.3989L21.974 25.1352C21.6568 24.7263 21.4729 24.2299 21.447 23.713C21.4212 23.1962 21.5548 22.6839 21.8296 22.2454C22.1044 21.8069 22.5073 21.4634 22.9837 21.2614C23.4601 21.0593 23.9871 21.0085 24.4933 21.1157L26.4879 21.41V19.3801C26.4879 18.934 26.6651 18.5062 26.9805 18.1908C27.2959 17.8754 27.7237 17.6983 28.1697 17.6983C28.6158 17.6983 29.0436 17.8754 29.359 18.1908C29.6744 18.5062 29.8515 18.934 29.8515 19.3801V42.0844C29.8515 43.4752 28.7197 44.6071 27.3288 44.6071ZM43.4321 33.9983L42.1136 34.856L42.8805 36.2284C43.163 36.7329 43.306 37.2879 43.306 37.8799C43.306 39.7349 41.7974 41.2435 39.8583 41.2435H38.4826L38.2101 42.5923C38.0925 43.1612 37.7825 43.6722 37.3321 44.0392C36.8818 44.4062 36.3188 44.6067 35.7379 44.6071C34.347 44.6071 33.2152 43.4752 33.2152 42.0844V19.3801C33.2152 18.4517 33.9686 17.6983 34.897 17.6983C35.8253 17.6983 36.5788 18.4517 36.5788 19.4642V21.4941L38.5734 21.1157C39.0796 21.0085 39.6066 21.0593 40.083 21.2614C40.5594 21.4634 40.9623 21.8069 41.2371 22.2454C41.5119 22.6839 41.6455 23.1962 41.6196 23.713C41.5938 24.2299 41.4099 24.7263 41.0927 25.1352L39.3117 27.4006L42.159 27.8378C42.9469 27.9654 43.6638 28.3688 44.182 28.9759C44.7001 29.583 44.9857 30.3545 44.9878 31.1527C44.9878 32.3013 44.4059 33.3642 43.4321 33.9983Z" fill="#F9F9F9"/>
</svg>
