<svg width="64" height="64" viewBox="0 0 64 64" fill="none" xmlns="http://www.w3.org/2000/svg">
<circle cx="31.7979" cy="32.3061" r="31.5338" fill="#57B8E8"/>
<path d="M19.3945 46.8116V26.6299M42.9398 16.5391V23.2663V16.5391ZM42.9398 46.8116V29.9935V46.8116ZM31.1671 16.5391V36.7207V16.5391ZM31.1671 46.8116V43.448V46.8116ZM19.3945 16.5391V19.9027V16.5391Z" stroke="#F9F9F9" stroke-width="3.3636" stroke-linecap="round"/>
<path d="M39.5765 26.63C39.5765 28.4876 41.0824 29.9936 42.9401 29.9936C44.7978 29.9936 46.3037 28.4876 46.3037 26.63C46.3037 24.7723 44.7978 23.2664 42.9401 23.2664C41.0824 23.2664 39.5765 24.7723 39.5765 26.63Z" stroke="#F9F9F9" stroke-width="3.3636" stroke-linecap="round"/>
<path d="M27.8036 40.0844C27.8036 41.942 29.3095 43.448 31.1672 43.448C33.0248 43.448 34.5308 41.942 34.5308 40.0844C34.5308 38.2267 33.0248 36.7208 31.1672 36.7208C29.3095 36.7208 27.8036 38.2267 27.8036 40.0844Z" stroke="#F9F9F9" stroke-width="3.3636" stroke-linecap="round"/>
<path d="M16.0311 23.2664C16.0311 25.124 17.537 26.63 19.3947 26.63C21.2524 26.63 22.7583 25.124 22.7583 23.2664C22.7583 21.4087 21.2524 19.9028 19.3947 19.9028C17.537 19.9028 16.0311 21.4087 16.0311 23.2664Z" stroke="#F9F9F9" stroke-width="3.3636" stroke-linecap="round"/>
</svg>
