<svg width="30" height="29" viewBox="0 0 30 29" fill="none" xmlns="http://www.w3.org/2000/svg">
<path d="M14.9999 9.6835C12.2761 9.6835 10.0533 11.8479 10.0533 14.5C10.0533 17.1521 12.2761 19.3165 14.9999 19.3165C17.7238 19.3165 19.9466 17.1521 19.9466 14.5C19.9466 11.8479 17.7238 9.6835 14.9999 9.6835ZM29.8363 14.5C29.8363 12.5055 29.8548 10.529 29.7398 8.53809C29.6247 6.22559 29.0829 4.17324 27.3462 2.48223C25.6058 0.787598 23.5017 0.263672 21.1267 0.151661C19.0783 0.0396489 17.0484 0.0577154 15.0036 0.0577154C12.9552 0.0577154 10.9253 0.0396489 8.8806 0.151661C6.5056 0.263672 4.39778 0.791211 2.66106 2.48223C0.920635 4.17686 0.382549 6.22559 0.26751 8.53809C0.152471 10.5326 0.171026 12.5091 0.171026 14.5C0.171026 16.4909 0.152471 18.471 0.26751 20.4619C0.382549 22.7744 0.924346 24.8268 2.66106 26.5178C4.40149 28.2124 6.5056 28.7363 8.8806 28.8483C10.929 28.9604 12.9589 28.9423 15.0036 28.9423C17.0521 28.9423 19.082 28.9604 21.1267 28.8483C23.5017 28.7363 25.6095 28.2088 27.3462 26.5178C29.0867 24.8231 29.6247 22.7744 29.7398 20.4619C29.8585 18.471 29.8363 16.4945 29.8363 14.5ZM14.9999 21.9108C10.788 21.9108 7.3888 18.6011 7.3888 14.5C7.3888 10.3989 10.788 7.08916 14.9999 7.08916C19.2118 7.08916 22.6111 10.3989 22.6111 14.5C22.6111 18.6011 19.2118 21.9108 14.9999 21.9108ZM22.9228 8.51641C21.9394 8.51641 21.1452 7.74316 21.1452 6.78564C21.1452 5.82812 21.9394 5.05488 22.9228 5.05488C23.9062 5.05488 24.7003 5.82812 24.7003 6.78564C24.7006 7.01301 24.6548 7.2382 24.5656 7.44832C24.4764 7.65843 24.3455 7.84934 24.1803 8.01011C24.0152 8.17089 23.8192 8.29836 23.6034 8.38524C23.3876 8.47212 23.1563 8.51669 22.9228 8.51641Z" fill="#424242"/>
</svg>
