<svg width="31" height="30" viewBox="0 0 31 30" fill="none" xmlns="http://www.w3.org/2000/svg">
<path fill-rule="evenodd" clip-rule="evenodd" d="M0.833496 2.78392C0.833496 2.13396 1.09169 1.51063 1.55128 1.05104C2.01087 0.59145 2.63421 0.333255 3.28416 0.333255H27.7135C28.0356 0.332729 28.3546 0.395739 28.6524 0.518677C28.9501 0.641616 29.2206 0.822068 29.4485 1.0497C29.6764 1.27734 29.8571 1.54769 29.9804 1.84527C30.1037 2.14285 30.167 2.46182 30.1668 2.78392V27.2133C30.1672 27.5354 30.104 27.8545 29.9809 28.1522C29.8578 28.4499 29.6773 28.7205 29.4495 28.9483C29.2218 29.1762 28.9513 29.3569 28.6537 29.4802C28.356 29.6034 28.037 29.6668 27.7148 29.6666H3.28416C2.96222 29.6666 2.64344 29.6032 2.34603 29.4799C2.04861 29.3567 1.77839 29.176 1.55081 28.9483C1.32323 28.7206 1.14274 28.4503 1.01966 28.1528C0.89658 27.8553 0.833321 27.5365 0.833496 27.2146V2.78392ZM12.4442 11.5173H16.4162V13.5119C16.9895 12.3653 18.4562 11.3333 20.6602 11.3333C24.8855 11.3333 25.8868 13.6173 25.8868 17.8079V25.5706H21.6108V18.7626C21.6108 16.3759 21.0375 15.0293 19.5815 15.0293C17.5615 15.0293 16.7215 16.4813 16.7215 18.7626V25.5706H12.4442V11.5173ZM5.11083 25.3879H9.38816V11.3333H5.11083V25.3866V25.3879ZM10.0002 6.74926C10.0082 7.11549 9.94306 7.47964 9.80848 7.82034C9.67391 8.16104 9.47263 8.47144 9.21647 8.7333C8.96031 8.99516 8.65443 9.20322 8.31677 9.34526C7.97911 9.48731 7.61648 9.56048 7.25016 9.56048C6.88384 9.56048 6.52121 9.48731 6.18356 9.34526C5.8459 9.20322 5.54001 8.99516 5.28385 8.7333C5.0277 8.47144 4.82642 8.16104 4.69184 7.82034C4.55727 7.47964 4.4921 7.11549 4.50016 6.74926C4.51599 6.03039 4.81268 5.34631 5.32668 4.8435C5.84068 4.3407 6.53113 4.05915 7.25016 4.05915C7.9692 4.05915 8.65965 4.3407 9.17365 4.8435C9.68765 5.34631 9.98433 6.03039 10.0002 6.74926Z" fill="#424242"/>
</svg>
