<svg width="929" height="659" viewBox="0 0 929 659" fill="none" xmlns="http://www.w3.org/2000/svg">
<path d="M489.33 39.5034C452.369 30.1504 413.759 29.3748 376.452 37.236C339.145 45.0973 304.131 61.387 274.087 84.8593C244.043 108.332 219.766 138.364 203.112 172.661C186.458 206.957 177.869 244.608 178.001 282.733L428 281.864L489.33 39.5034Z" fill="#FBEBAD"/>
<path d="M588.089 473.884C551.651 504.263 507.321 523.647 460.278 529.772C413.235 535.897 365.42 528.51 322.418 508.475C279.416 488.44 243.002 456.582 217.43 416.624C191.858 376.666 178.183 330.257 178.002 282.817L428 281.864L588.089 473.884Z" fill="#FC909F"/>
<path d="M678 281.864C678 318.665 669.875 355.011 654.207 388.309C638.538 421.607 615.711 451.035 587.356 474.493L428 281.864H678Z" fill="#9287FF"/>
<path d="M678 281.864C678 226.382 659.544 172.477 625.539 128.637C591.533 84.7982 543.911 53.5163 490.172 39.7185L428 281.864H678Z" fill="#F9C9B6"/>
<path d="M688.868 398.324V395.336H695.636V421.364H692.324V398.324H688.868ZM700.471 415.568V413.084L713.107 395.588H717.031V412.724H720.631V415.568H717.031V421.364H713.791V415.568H700.471ZM713.935 399.008L704.251 412.724H713.935V399.008ZM723.184 401.204C723.184 399.572 723.676 398.276 724.66 397.316C725.644 396.332 726.904 395.84 728.44 395.84C729.976 395.84 731.236 396.332 732.22 397.316C733.204 398.276 733.696 399.572 733.696 401.204C733.696 402.86 733.204 404.18 732.22 405.164C731.236 406.124 729.976 406.604 728.44 406.604C726.904 406.604 725.644 406.124 724.66 405.164C723.676 404.18 723.184 402.86 723.184 401.204ZM744.208 396.236L729.628 421.364H726.388L740.968 396.236H744.208ZM728.44 397.856C727.624 397.856 726.976 398.144 726.496 398.72C726.04 399.272 725.812 400.1 725.812 401.204C725.812 402.308 726.04 403.148 726.496 403.724C726.976 404.3 727.624 404.588 728.44 404.588C729.256 404.588 729.904 404.3 730.384 403.724C730.864 403.124 731.104 402.284 731.104 401.204C731.104 400.1 730.864 399.272 730.384 398.72C729.904 398.144 729.256 397.856 728.44 397.856ZM736.972 416.396C736.972 414.74 737.464 413.432 738.448 412.472C739.432 411.488 740.692 410.996 742.228 410.996C743.764 410.996 745.012 411.488 745.972 412.472C746.956 413.432 747.448 414.74 747.448 416.396C747.448 418.028 746.956 419.336 745.972 420.32C745.012 421.304 743.764 421.796 742.228 421.796C740.692 421.796 739.432 421.316 738.448 420.356C737.464 419.372 736.972 418.052 736.972 416.396ZM742.192 413.048C741.376 413.048 740.728 413.336 740.248 413.912C739.768 414.464 739.528 415.292 739.528 416.396C739.528 417.476 739.768 418.304 740.248 418.88C740.728 419.432 741.376 419.708 742.192 419.708C743.008 419.708 743.656 419.432 744.136 418.88C744.616 418.304 744.856 417.476 744.856 416.396C744.856 415.292 744.616 414.464 744.136 413.912C743.656 413.336 743.008 413.048 742.192 413.048Z" fill="#424242"/>
<path d="M764.574 455.49C763.41 455.49 762.348 455.22 761.388 454.68C760.428 454.128 759.666 453.366 759.102 452.394C758.55 451.41 758.274 450.306 758.274 449.082C758.274 447.858 758.55 446.76 759.102 445.788C759.666 444.804 760.428 444.042 761.388 443.502C762.348 442.95 763.41 442.674 764.574 442.674C765.75 442.674 766.818 442.95 767.778 443.502C768.738 444.042 769.494 444.798 770.046 445.77C770.598 446.742 770.874 447.846 770.874 449.082C770.874 450.318 770.598 451.422 770.046 452.394C769.494 453.366 768.738 454.128 767.778 454.68C766.818 455.22 765.75 455.49 764.574 455.49ZM764.574 454.068C765.45 454.068 766.236 453.864 766.932 453.456C767.64 453.048 768.192 452.466 768.588 451.71C768.996 450.954 769.2 450.078 769.2 449.082C769.2 448.074 768.996 447.198 768.588 446.454C768.192 445.698 767.646 445.116 766.95 444.708C766.254 444.3 765.462 444.096 764.574 444.096C763.686 444.096 762.894 444.3 762.198 444.708C761.502 445.116 760.95 445.698 760.542 446.454C760.146 447.198 759.948 448.074 759.948 449.082C759.948 450.078 760.146 450.954 760.542 451.71C760.95 452.466 761.502 453.048 762.198 453.456C762.906 453.864 763.698 454.068 764.574 454.068ZM775.034 446.85V452.664C775.034 453.144 775.136 453.486 775.34 453.69C775.544 453.882 775.898 453.978 776.402 453.978H777.608V455.364H776.132C775.22 455.364 774.536 455.154 774.08 454.734C773.624 454.314 773.396 453.624 773.396 452.664V446.85H772.118V445.5H773.396V443.016H775.034V445.5H777.608V446.85H775.034ZM784.489 445.32C785.233 445.32 785.905 445.482 786.505 445.806C787.105 446.118 787.573 446.592 787.909 447.228C788.257 447.864 788.431 448.638 788.431 449.55V455.364H786.811V449.784C786.811 448.8 786.565 448.05 786.073 447.534C785.581 447.006 784.909 446.742 784.057 446.742C783.193 446.742 782.503 447.012 781.987 447.552C781.483 448.092 781.231 448.878 781.231 449.91V455.364H779.593V442.044H781.231V446.904C781.555 446.4 781.999 446.01 782.563 445.734C783.139 445.458 783.781 445.32 784.489 445.32ZM800.107 450.054C800.107 450.366 800.089 450.696 800.053 451.044H792.169C792.229 452.016 792.559 452.778 793.159 453.33C793.771 453.87 794.509 454.14 795.373 454.14C796.081 454.14 796.669 453.978 797.137 453.654C797.617 453.318 797.953 452.874 798.145 452.322H799.909C799.645 453.27 799.117 454.044 798.325 454.644C797.533 455.232 796.549 455.526 795.373 455.526C794.437 455.526 793.597 455.316 792.853 454.896C792.121 454.476 791.545 453.882 791.125 453.114C790.705 452.334 790.495 451.434 790.495 450.414C790.495 449.394 790.699 448.5 791.107 447.732C791.515 446.964 792.085 446.376 792.817 445.968C793.561 445.548 794.413 445.338 795.373 445.338C796.309 445.338 797.137 445.542 797.857 445.95C798.577 446.358 799.129 446.922 799.513 447.642C799.909 448.35 800.107 449.154 800.107 450.054ZM798.415 449.712C798.415 449.088 798.277 448.554 798.001 448.11C797.725 447.654 797.347 447.312 796.867 447.084C796.399 446.844 795.877 446.724 795.301 446.724C794.473 446.724 793.765 446.988 793.177 447.516C792.601 448.044 792.271 448.776 792.187 449.712H798.415ZM803.907 447.102C804.195 446.538 804.603 446.1 805.131 445.788C805.671 445.476 806.325 445.32 807.093 445.32V447.012H806.661C804.825 447.012 803.907 448.008 803.907 450V455.364H802.269V445.5H803.907V447.102Z" fill="#424242"/>
<path d="M716.5 429.364L736.5 449.364H752.5" stroke="#424242" stroke-width="2" stroke-linecap="round"/>
<path d="M660.336 79.7363C663.384 77.2883 665.772 75.2843 667.5 73.7243C669.228 72.1403 670.68 70.4963 671.856 68.7923C673.056 67.0643 673.656 65.3723 673.656 63.7163C673.656 62.1563 673.272 60.9323 672.504 60.0443C671.76 59.1323 670.548 58.6763 668.868 58.6763C667.236 58.6763 665.964 59.1923 665.052 60.2243C664.164 61.2323 663.684 62.5883 663.612 64.2923H660.444C660.54 61.6043 661.356 59.5283 662.892 58.0643C664.428 56.6003 666.408 55.8683 668.832 55.8683C671.304 55.8683 673.26 56.5523 674.7 57.9203C676.164 59.2883 676.896 61.1723 676.896 63.5723C676.896 65.5643 676.296 67.5083 675.096 69.4043C673.92 71.2763 672.576 72.9323 671.064 74.3723C669.552 75.7883 667.62 77.4443 665.268 79.3403H677.652V82.0763H660.336V79.7363ZM680.575 59.3243V56.3363H687.343V82.3643H684.031V59.3243H680.575ZM692.25 62.2043C692.25 60.5723 692.742 59.2763 693.726 58.3163C694.71 57.3323 695.97 56.8403 697.506 56.8403C699.042 56.8403 700.302 57.3323 701.286 58.3163C702.27 59.2763 702.762 60.5723 702.762 62.2043C702.762 63.8603 702.27 65.1803 701.286 66.1643C700.302 67.1243 699.042 67.6043 697.506 67.6043C695.97 67.6043 694.71 67.1243 693.726 66.1643C692.742 65.1803 692.25 63.8603 692.25 62.2043ZM713.274 57.2363L698.694 82.3643H695.454L710.034 57.2363H713.274ZM697.506 58.8563C696.69 58.8563 696.042 59.1443 695.562 59.7203C695.106 60.2723 694.878 61.1003 694.878 62.2043C694.878 63.3083 695.106 64.1483 695.562 64.7243C696.042 65.3003 696.69 65.5883 697.506 65.5883C698.322 65.5883 698.97 65.3003 699.45 64.7243C699.93 64.1243 700.17 63.2843 700.17 62.2043C700.17 61.1003 699.93 60.2723 699.45 59.7203C698.97 59.1443 698.322 58.8563 697.506 58.8563ZM706.038 77.3963C706.038 75.7403 706.53 74.4323 707.514 73.4723C708.498 72.4883 709.758 71.9963 711.294 71.9963C712.83 71.9963 714.078 72.4883 715.038 73.4723C716.022 74.4323 716.514 75.7403 716.514 77.3963C716.514 79.0283 716.022 80.3363 715.038 81.3203C714.078 82.3043 712.83 82.7963 711.294 82.7963C709.758 82.7963 708.498 82.3163 707.514 81.3563C706.53 80.3723 706.038 79.0523 706.038 77.3963ZM711.258 74.0483C710.442 74.0483 709.794 74.3363 709.314 74.9123C708.834 75.4643 708.594 76.2923 708.594 77.3963C708.594 78.4763 708.834 79.3043 709.314 79.8803C709.794 80.4323 710.442 80.7083 711.258 80.7083C712.074 80.7083 712.722 80.4323 713.202 79.8803C713.682 79.3043 713.922 78.4763 713.922 77.3963C713.922 76.2923 713.682 75.4643 713.202 74.9123C712.722 74.3363 712.074 74.0483 711.258 74.0483Z" fill="#424242"/>
<path d="M729.418 115.05C730.942 113.826 732.136 112.824 733 112.044C733.864 111.252 734.59 110.43 735.178 109.578C735.778 108.714 736.078 107.868 736.078 107.04C736.078 106.26 735.886 105.648 735.502 105.204C735.13 104.748 734.524 104.52 733.684 104.52C732.868 104.52 732.232 104.778 731.776 105.294C731.332 105.798 731.092 106.476 731.056 107.328H729.472C729.52 105.984 729.928 104.946 730.696 104.214C731.464 103.482 732.454 103.116 733.666 103.116C734.902 103.116 735.88 103.458 736.6 104.142C737.332 104.826 737.698 105.768 737.698 106.968C737.698 107.964 737.398 108.936 736.798 109.884C736.21 110.82 735.538 111.648 734.782 112.368C734.026 113.076 733.06 113.904 731.884 114.852H738.076V116.22H729.418V115.05ZM749.934 106.32C750.678 106.32 751.35 106.482 751.95 106.806C752.55 107.118 753.018 107.592 753.354 108.228C753.702 108.864 753.876 109.638 753.876 110.55V116.364H752.256V110.784C752.256 109.8 752.01 109.05 751.518 108.534C751.026 108.006 750.354 107.742 749.502 107.742C748.638 107.742 747.948 108.012 747.432 108.552C746.928 109.092 746.676 109.878 746.676 110.91V116.364H745.038V103.044H746.676V107.904C747 107.4 747.444 107.01 748.008 106.734C748.584 106.458 749.226 106.32 749.934 106.32ZM760.854 116.526C759.93 116.526 759.09 116.316 758.334 115.896C757.59 115.476 757.002 114.882 756.57 114.114C756.15 113.334 755.94 112.434 755.94 111.414C755.94 110.406 756.156 109.518 756.588 108.75C757.032 107.97 757.632 107.376 758.388 106.968C759.144 106.548 759.99 106.338 760.926 106.338C761.862 106.338 762.708 106.548 763.464 106.968C764.22 107.376 764.814 107.964 765.246 108.732C765.69 109.5 765.912 110.394 765.912 111.414C765.912 112.434 765.684 113.334 765.228 114.114C764.784 114.882 764.178 115.476 763.41 115.896C762.642 116.316 761.79 116.526 760.854 116.526ZM760.854 115.086C761.442 115.086 761.994 114.948 762.51 114.672C763.026 114.396 763.44 113.982 763.752 113.43C764.076 112.878 764.238 112.206 764.238 111.414C764.238 110.622 764.082 109.95 763.77 109.398C763.458 108.846 763.05 108.438 762.546 108.174C762.042 107.898 761.496 107.76 760.908 107.76C760.308 107.76 759.756 107.898 759.252 108.174C758.76 108.438 758.364 108.846 758.064 109.398C757.764 109.95 757.614 110.622 757.614 111.414C757.614 112.218 757.758 112.896 758.046 113.448C758.346 114 758.742 114.414 759.234 114.69C759.726 114.954 760.266 115.086 760.854 115.086ZM776.814 106.5V116.364H775.176V114.906C774.864 115.41 774.426 115.806 773.862 116.094C773.31 116.37 772.698 116.508 772.026 116.508C771.258 116.508 770.568 116.352 769.956 116.04C769.344 115.716 768.858 115.236 768.498 114.6C768.15 113.964 767.976 113.19 767.976 112.278V106.5H769.596V112.062C769.596 113.034 769.842 113.784 770.334 114.312C770.826 114.828 771.498 115.086 772.35 115.086C773.226 115.086 773.916 114.816 774.42 114.276C774.924 113.736 775.176 112.95 775.176 111.918V106.5H776.814ZM781.217 108.102C781.505 107.538 781.913 107.1 782.441 106.788C782.981 106.476 783.635 106.32 784.403 106.32V108.012H783.971C782.135 108.012 781.217 109.008 781.217 111V116.364H779.579V106.5H781.217V108.102ZM789.786 116.526C789.03 116.526 788.352 116.4 787.752 116.148C787.152 115.884 786.678 115.524 786.33 115.068C785.982 114.6 785.79 114.066 785.754 113.466H787.446C787.494 113.958 787.722 114.36 788.13 114.672C788.55 114.984 789.096 115.14 789.768 115.14C790.392 115.14 790.884 115.002 791.244 114.726C791.604 114.45 791.784 114.102 791.784 113.682C791.784 113.25 791.592 112.932 791.208 112.728C790.824 112.512 790.23 112.302 789.426 112.098C788.694 111.906 788.094 111.714 787.626 111.522C787.17 111.318 786.774 111.024 786.438 110.64C786.114 110.244 785.952 109.728 785.952 109.092C785.952 108.588 786.102 108.126 786.402 107.706C786.702 107.286 787.128 106.956 787.68 106.716C788.232 106.464 788.862 106.338 789.57 106.338C790.662 106.338 791.544 106.614 792.216 107.166C792.888 107.718 793.248 108.474 793.296 109.434H791.658C791.622 108.918 791.412 108.504 791.028 108.192C790.656 107.88 790.152 107.724 789.516 107.724C788.928 107.724 788.46 107.85 788.112 108.102C787.764 108.354 787.59 108.684 787.59 109.092C787.59 109.416 787.692 109.686 787.896 109.902C788.112 110.106 788.376 110.274 788.688 110.406C789.012 110.526 789.456 110.664 790.02 110.82C790.728 111.012 791.304 111.204 791.748 111.396C792.192 111.576 792.57 111.852 792.882 112.224C793.206 112.596 793.374 113.082 793.386 113.682C793.386 114.222 793.236 114.708 792.936 115.14C792.636 115.572 792.21 115.914 791.658 116.166C791.118 116.406 790.494 116.526 789.786 116.526ZM804.799 116.526C803.875 116.526 803.035 116.316 802.279 115.896C801.535 115.476 800.947 114.882 800.515 114.114C800.095 113.334 799.885 112.434 799.885 111.414C799.885 110.406 800.101 109.518 800.533 108.75C800.977 107.97 801.577 107.376 802.333 106.968C803.089 106.548 803.935 106.338 804.871 106.338C805.807 106.338 806.653 106.548 807.409 106.968C808.165 107.376 808.759 107.964 809.191 108.732C809.635 109.5 809.857 110.394 809.857 111.414C809.857 112.434 809.629 113.334 809.173 114.114C808.729 114.882 808.123 115.476 807.355 115.896C806.587 116.316 805.735 116.526 804.799 116.526ZM804.799 115.086C805.387 115.086 805.939 114.948 806.455 114.672C806.971 114.396 807.385 113.982 807.697 113.43C808.021 112.878 808.183 112.206 808.183 111.414C808.183 110.622 808.027 109.95 807.715 109.398C807.403 108.846 806.995 108.438 806.491 108.174C805.987 107.898 805.441 107.76 804.853 107.76C804.253 107.76 803.701 107.898 803.197 108.174C802.705 108.438 802.309 108.846 802.009 109.398C801.709 109.95 801.559 110.622 801.559 111.414C801.559 112.218 801.703 112.896 801.991 113.448C802.291 114 802.687 114.414 803.179 114.69C803.671 114.954 804.211 115.086 804.799 115.086ZM813.649 108.102C813.937 107.538 814.345 107.1 814.873 106.788C815.413 106.476 816.067 106.32 816.835 106.32V108.012H816.403C814.567 108.012 813.649 109.008 813.649 111V116.364H812.011V106.5H813.649V108.102ZM835.387 106.32C836.155 106.32 836.839 106.482 837.439 106.806C838.039 107.118 838.513 107.592 838.861 108.228C839.209 108.864 839.383 109.638 839.383 110.55V116.364H837.763V110.784C837.763 109.8 837.517 109.05 837.025 108.534C836.545 108.006 835.891 107.742 835.063 107.742C834.211 107.742 833.533 108.018 833.029 108.57C832.525 109.11 832.273 109.896 832.273 110.928V116.364H830.653V110.784C830.653 109.8 830.407 109.05 829.915 108.534C829.435 108.006 828.781 107.742 827.953 107.742C827.101 107.742 826.423 108.018 825.919 108.57C825.415 109.11 825.163 109.896 825.163 110.928V116.364H823.525V106.5H825.163V107.922C825.487 107.406 825.919 107.01 826.459 106.734C827.011 106.458 827.617 106.32 828.277 106.32C829.105 106.32 829.837 106.506 830.473 106.878C831.109 107.25 831.583 107.796 831.895 108.516C832.171 107.82 832.627 107.28 833.263 106.896C833.899 106.512 834.607 106.32 835.387 106.32ZM846.372 116.526C845.448 116.526 844.608 116.316 843.852 115.896C843.108 115.476 842.52 114.882 842.088 114.114C841.668 113.334 841.458 112.434 841.458 111.414C841.458 110.406 841.674 109.518 842.106 108.75C842.55 107.97 843.15 107.376 843.906 106.968C844.662 106.548 845.508 106.338 846.444 106.338C847.38 106.338 848.226 106.548 848.982 106.968C849.738 107.376 850.332 107.964 850.764 108.732C851.208 109.5 851.43 110.394 851.43 111.414C851.43 112.434 851.202 113.334 850.746 114.114C850.302 114.882 849.696 115.476 848.928 115.896C848.16 116.316 847.308 116.526 846.372 116.526ZM846.372 115.086C846.96 115.086 847.512 114.948 848.028 114.672C848.544 114.396 848.958 113.982 849.27 113.43C849.594 112.878 849.756 112.206 849.756 111.414C849.756 110.622 849.6 109.95 849.288 109.398C848.976 108.846 848.568 108.438 848.064 108.174C847.56 107.898 847.014 107.76 846.426 107.76C845.826 107.76 845.274 107.898 844.77 108.174C844.278 108.438 843.882 108.846 843.582 109.398C843.282 109.95 843.132 110.622 843.132 111.414C843.132 112.218 843.276 112.896 843.564 113.448C843.864 114 844.26 114.414 844.752 114.69C845.244 114.954 845.784 115.086 846.372 115.086ZM855.221 108.102C855.509 107.538 855.917 107.1 856.445 106.788C856.985 106.476 857.639 106.32 858.407 106.32V108.012H857.975C856.139 108.012 855.221 109.008 855.221 111V116.364H853.583V106.5H855.221V108.102ZM869.298 111.054C869.298 111.366 869.28 111.696 869.244 112.044H861.36C861.42 113.016 861.75 113.778 862.35 114.33C862.962 114.87 863.7 115.14 864.564 115.14C865.272 115.14 865.86 114.978 866.328 114.654C866.808 114.318 867.144 113.874 867.336 113.322H869.1C868.836 114.27 868.308 115.044 867.516 115.644C866.724 116.232 865.74 116.526 864.564 116.526C863.628 116.526 862.788 116.316 862.044 115.896C861.312 115.476 860.736 114.882 860.316 114.114C859.896 113.334 859.686 112.434 859.686 111.414C859.686 110.394 859.89 109.5 860.298 108.732C860.706 107.964 861.276 107.376 862.008 106.968C862.752 106.548 863.604 106.338 864.564 106.338C865.5 106.338 866.328 106.542 867.048 106.95C867.768 107.358 868.32 107.922 868.704 108.642C869.1 109.35 869.298 110.154 869.298 111.054ZM867.606 110.712C867.606 110.088 867.468 109.554 867.192 109.11C866.916 108.654 866.538 108.312 866.058 108.084C865.59 107.844 865.068 107.724 864.492 107.724C863.664 107.724 862.956 107.988 862.368 108.516C861.792 109.044 861.462 109.776 861.378 110.712H867.606Z" fill="#424242"/>
<path d="M687.5 90.3643L707.5 110.364H723.5" stroke="#424242" stroke-width="2" stroke-linecap="round"/>
<path d="M130.006 106.736C133.054 104.288 135.442 102.284 137.17 100.724C138.898 99.1398 140.35 97.4958 141.526 95.7918C142.726 94.0638 143.326 92.3718 143.326 90.7158C143.326 89.1558 142.942 87.9318 142.174 87.0438C141.43 86.1318 140.218 85.6758 138.538 85.6758C136.906 85.6758 135.634 86.1918 134.722 87.2238C133.834 88.2318 133.354 89.5878 133.282 91.2918H130.114C130.21 88.6038 131.026 86.5278 132.562 85.0638C134.098 83.5998 136.078 82.8678 138.502 82.8678C140.974 82.8678 142.93 83.5518 144.37 84.9198C145.834 86.2878 146.566 88.1718 146.566 90.5718C146.566 92.5638 145.966 94.5078 144.766 96.4038C143.59 98.2758 142.246 99.9318 140.734 101.372C139.222 102.788 137.29 104.444 134.938 106.34H147.322V109.076H130.006V106.736ZM155.321 102.38C155.561 103.748 156.113 104.804 156.977 105.548C157.865 106.292 159.053 106.664 160.541 106.664C162.533 106.664 163.997 105.884 164.933 104.324C165.893 102.764 166.349 100.136 166.301 96.4398C165.797 97.5198 164.957 98.3718 163.781 98.9958C162.605 99.5958 161.297 99.8958 159.857 99.8958C158.249 99.8958 156.809 99.5718 155.537 98.9238C154.289 98.2518 153.305 97.2798 152.585 96.0078C151.865 94.7358 151.505 93.1998 151.505 91.3998C151.505 88.8318 152.249 86.7678 153.737 85.2078C155.225 83.6238 157.337 82.8318 160.073 82.8318C163.433 82.8318 165.785 83.9238 167.129 86.1078C168.497 88.2918 169.181 91.5438 169.181 95.8638C169.181 98.8878 168.905 101.384 168.353 103.352C167.825 105.32 166.913 106.82 165.617 107.852C164.345 108.884 162.593 109.4 160.361 109.4C157.913 109.4 156.005 108.74 154.637 107.42C153.269 106.1 152.489 104.42 152.297 102.38H155.321ZM160.397 97.1238C162.005 97.1238 163.325 96.6318 164.357 95.6478C165.389 94.6398 165.905 93.2838 165.905 91.5798C165.905 89.7798 165.401 88.3278 164.393 87.2238C163.385 86.1198 161.969 85.5678 160.145 85.5678C158.465 85.5678 157.121 86.0958 156.113 87.1518C155.129 88.2078 154.637 89.5998 154.637 91.3278C154.637 93.0798 155.129 94.4838 156.113 95.5398C157.097 96.5958 158.525 97.1238 160.397 97.1238ZM173.065 89.2038C173.065 87.5718 173.557 86.2758 174.541 85.3158C175.525 84.3318 176.785 83.8398 178.321 83.8398C179.857 83.8398 181.117 84.3318 182.101 85.3158C183.085 86.2758 183.577 87.5718 183.577 89.2038C183.577 90.8598 183.085 92.1798 182.101 93.1638C181.117 94.1238 179.857 94.6038 178.321 94.6038C176.785 94.6038 175.525 94.1238 174.541 93.1638C173.557 92.1798 173.065 90.8598 173.065 89.2038ZM194.089 84.2358L179.509 109.364H176.269L190.849 84.2358H194.089ZM178.321 85.8558C177.505 85.8558 176.857 86.1438 176.377 86.7198C175.921 87.2718 175.693 88.0998 175.693 89.2038C175.693 90.3078 175.921 91.1478 176.377 91.7238C176.857 92.2998 177.505 92.5878 178.321 92.5878C179.137 92.5878 179.785 92.2998 180.265 91.7238C180.745 91.1238 180.985 90.2838 180.985 89.2038C180.985 88.0998 180.745 87.2718 180.265 86.7198C179.785 86.1438 179.137 85.8558 178.321 85.8558ZM186.853 104.396C186.853 102.74 187.345 101.432 188.329 100.472C189.313 99.4878 190.573 98.9958 192.109 98.9958C193.645 98.9958 194.893 99.4878 195.853 100.472C196.837 101.432 197.329 102.74 197.329 104.396C197.329 106.028 196.837 107.336 195.853 108.32C194.893 109.304 193.645 109.796 192.109 109.796C190.573 109.796 189.313 109.316 188.329 108.356C187.345 107.372 186.853 106.052 186.853 104.396ZM192.073 101.048C191.257 101.048 190.609 101.336 190.129 101.912C189.649 102.464 189.409 103.292 189.409 104.396C189.409 105.476 189.649 106.304 190.129 106.88C190.609 107.432 191.257 107.708 192.073 107.708C192.889 107.708 193.537 107.432 194.017 106.88C194.497 106.304 194.737 105.476 194.737 104.396C194.737 103.292 194.497 102.464 194.017 101.912C193.537 101.336 192.889 101.048 192.073 101.048Z" fill="#424242"/>
<path d="M59.3637 131.843V130.349H62.7477V143.363H61.0917V131.843H59.3637ZM75.5261 133.319C76.2701 133.319 76.9421 133.481 77.5421 133.805C78.1421 134.117 78.6101 134.591 78.9461 135.227C79.2941 135.863 79.4681 136.637 79.4681 137.549V143.363H77.8481V137.783C77.8481 136.799 77.6021 136.049 77.1101 135.533C76.6181 135.005 75.9461 134.741 75.0941 134.741C74.2301 134.741 73.5401 135.011 73.0241 135.551C72.5201 136.091 72.2681 136.877 72.2681 137.909V143.363H70.6301V130.043H72.2681V134.903C72.5921 134.399 73.0361 134.009 73.6001 133.733C74.1761 133.457 74.8181 133.319 75.5261 133.319ZM86.4458 143.525C85.5218 143.525 84.6818 143.315 83.9258 142.895C83.1818 142.475 82.5938 141.881 82.1618 141.113C81.7418 140.333 81.5318 139.433 81.5318 138.413C81.5318 137.405 81.7478 136.517 82.1798 135.749C82.6238 134.969 83.2238 134.375 83.9798 133.967C84.7358 133.547 85.5818 133.337 86.5178 133.337C87.4538 133.337 88.2998 133.547 89.0558 133.967C89.8118 134.375 90.4058 134.963 90.8378 135.731C91.2818 136.499 91.5038 137.393 91.5038 138.413C91.5038 139.433 91.2758 140.333 90.8198 141.113C90.3758 141.881 89.7698 142.475 89.0018 142.895C88.2338 143.315 87.3818 143.525 86.4458 143.525ZM86.4458 142.085C87.0338 142.085 87.5858 141.947 88.1018 141.671C88.6178 141.395 89.0318 140.981 89.3438 140.429C89.6678 139.877 89.8298 139.205 89.8298 138.413C89.8298 137.621 89.6738 136.949 89.3618 136.397C89.0498 135.845 88.6418 135.437 88.1378 135.173C87.6338 134.897 87.0878 134.759 86.4998 134.759C85.8998 134.759 85.3478 134.897 84.8438 135.173C84.3518 135.437 83.9558 135.845 83.6558 136.397C83.3558 136.949 83.2058 137.621 83.2058 138.413C83.2058 139.217 83.3498 139.895 83.6378 140.447C83.9378 140.999 84.3338 141.413 84.8258 141.689C85.3178 141.953 85.8578 142.085 86.4458 142.085ZM102.405 133.499V143.363H100.767V141.905C100.455 142.409 100.017 142.805 99.4535 143.093C98.9015 143.369 98.2895 143.507 97.6175 143.507C96.8495 143.507 96.1595 143.351 95.5475 143.039C94.9355 142.715 94.4495 142.235 94.0895 141.599C93.7415 140.963 93.5675 140.189 93.5675 139.277V133.499H95.1875V139.061C95.1875 140.033 95.4335 140.783 95.9255 141.311C96.4175 141.827 97.0895 142.085 97.9415 142.085C98.8175 142.085 99.5075 141.815 100.011 141.275C100.515 140.735 100.767 139.949 100.767 138.917V133.499H102.405ZM106.809 135.101C107.097 134.537 107.505 134.099 108.033 133.787C108.573 133.475 109.227 133.319 109.995 133.319V135.011H109.563C107.727 135.011 106.809 136.007 106.809 137.999V143.363H105.171V133.499H106.809V135.101Z" fill="#424242"/>
<path d="M152.5 117.363L132.5 137.363H116.5" stroke="#424242" stroke-width="2" stroke-linecap="round"/>
<path d="M242.33 551.888C242.498 549.68 243.35 547.952 244.886 546.704C246.422 545.456 248.414 544.832 250.862 544.832C252.494 544.832 253.898 545.132 255.074 545.732C256.274 546.308 257.174 547.1 257.774 548.108C258.398 549.116 258.71 550.256 258.71 551.528C258.71 553.016 258.278 554.3 257.414 555.38C256.574 556.46 255.47 557.156 254.102 557.468V557.648C255.662 558.032 256.898 558.788 257.81 559.916C258.722 561.044 259.178 562.52 259.178 564.344C259.178 565.712 258.866 566.948 258.242 568.052C257.618 569.132 256.682 569.984 255.434 570.608C254.186 571.232 252.686 571.544 250.934 571.544C248.39 571.544 246.302 570.884 244.67 569.564C243.038 568.22 242.126 566.324 241.934 563.876H245.102C245.27 565.316 245.858 566.492 246.866 567.404C247.874 568.316 249.218 568.772 250.898 568.772C252.578 568.772 253.85 568.34 254.714 567.476C255.602 566.588 256.046 565.448 256.046 564.056C256.046 562.256 255.446 560.96 254.246 560.168C253.046 559.376 251.234 558.98 248.81 558.98H247.982V556.244H248.846C251.054 556.22 252.722 555.86 253.85 555.164C254.978 554.444 255.542 553.34 255.542 551.852C255.542 550.58 255.122 549.56 254.282 548.792C253.466 548.024 252.29 547.64 250.754 547.64C249.266 547.64 248.066 548.024 247.154 548.792C246.242 549.56 245.702 550.592 245.534 551.888H242.33ZM278.109 551.528C277.581 548.864 275.937 547.532 273.177 547.532C271.041 547.532 269.445 548.36 268.389 550.016C267.333 551.648 266.817 554.348 266.841 558.116C267.393 556.868 268.305 555.896 269.577 555.2C270.873 554.48 272.313 554.12 273.897 554.12C276.369 554.12 278.337 554.888 279.801 556.424C281.289 557.96 282.033 560.084 282.033 562.796C282.033 564.428 281.709 565.892 281.061 567.188C280.437 568.484 279.477 569.516 278.181 570.284C276.909 571.052 275.361 571.436 273.537 571.436C271.065 571.436 269.133 570.884 267.741 569.78C266.349 568.676 265.377 567.152 264.825 565.208C264.273 563.264 263.997 560.864 263.997 558.008C263.997 549.2 267.069 544.796 273.213 544.796C275.565 544.796 277.413 545.432 278.757 546.704C280.101 547.976 280.893 549.584 281.133 551.528H278.109ZM273.213 556.892C272.181 556.892 271.209 557.108 270.297 557.54C269.385 557.948 268.641 558.584 268.065 559.448C267.513 560.288 267.237 561.32 267.237 562.544C267.237 564.368 267.765 565.856 268.821 567.008C269.877 568.136 271.389 568.7 273.357 568.7C275.037 568.7 276.369 568.184 277.353 567.152C278.361 566.096 278.865 564.68 278.865 562.904C278.865 561.032 278.385 559.568 277.425 558.512C276.465 557.432 275.061 556.892 273.213 556.892ZM285.733 551.204C285.733 549.572 286.225 548.276 287.209 547.316C288.193 546.332 289.453 545.84 290.989 545.84C292.525 545.84 293.785 546.332 294.769 547.316C295.753 548.276 296.245 549.572 296.245 551.204C296.245 552.86 295.753 554.18 294.769 555.164C293.785 556.124 292.525 556.604 290.989 556.604C289.453 556.604 288.193 556.124 287.209 555.164C286.225 554.18 285.733 552.86 285.733 551.204ZM306.757 546.236L292.177 571.364H288.937L303.517 546.236H306.757ZM290.989 547.856C290.173 547.856 289.525 548.144 289.045 548.72C288.589 549.272 288.361 550.1 288.361 551.204C288.361 552.308 288.589 553.148 289.045 553.724C289.525 554.3 290.173 554.588 290.989 554.588C291.805 554.588 292.453 554.3 292.933 553.724C293.413 553.124 293.653 552.284 293.653 551.204C293.653 550.1 293.413 549.272 292.933 548.72C292.453 548.144 291.805 547.856 290.989 547.856ZM299.521 566.396C299.521 564.74 300.013 563.432 300.997 562.472C301.981 561.488 303.241 560.996 304.777 560.996C306.313 560.996 307.561 561.488 308.521 562.472C309.505 563.432 309.997 564.74 309.997 566.396C309.997 568.028 309.505 569.336 308.521 570.32C307.561 571.304 306.313 571.796 304.777 571.796C303.241 571.796 301.981 571.316 300.997 570.356C300.013 569.372 299.521 568.052 299.521 566.396ZM304.741 563.048C303.925 563.048 303.277 563.336 302.797 563.912C302.317 564.464 302.077 565.292 302.077 566.396C302.077 567.476 302.317 568.304 302.797 568.88C303.277 569.432 303.925 569.708 304.741 569.708C305.557 569.708 306.205 569.432 306.685 568.88C307.165 568.304 307.405 567.476 307.405 566.396C307.405 565.292 307.165 564.464 306.685 563.912C306.205 563.336 305.557 563.048 304.741 563.048Z" fill="#424242"/>
<path d="M79.6178 604.032H84.0098V605.364H77.9798V592.818H79.6178V604.032ZM94.7493 600.054C94.7493 600.366 94.7313 600.696 94.6953 601.044H86.8113C86.8713 602.016 87.2013 602.778 87.8013 603.33C88.4133 603.87 89.1513 604.14 90.0153 604.14C90.7233 604.14 91.3113 603.978 91.7793 603.654C92.2593 603.318 92.5953 602.874 92.7873 602.322H94.5513C94.2873 603.27 93.7593 604.044 92.9673 604.644C92.1753 605.232 91.1913 605.526 90.0153 605.526C89.0793 605.526 88.2393 605.316 87.4953 604.896C86.7633 604.476 86.1873 603.882 85.7673 603.114C85.3473 602.334 85.1373 601.434 85.1373 600.414C85.1373 599.394 85.3413 598.5 85.7493 597.732C86.1573 596.964 86.7273 596.376 87.4593 595.968C88.2033 595.548 89.0553 595.338 90.0153 595.338C90.9513 595.338 91.7793 595.542 92.4993 595.95C93.2193 596.358 93.7713 596.922 94.1553 597.642C94.5513 598.35 94.7493 599.154 94.7493 600.054ZM93.0573 599.712C93.0573 599.088 92.9193 598.554 92.6433 598.11C92.3673 597.654 91.9893 597.312 91.5093 597.084C91.0413 596.844 90.5193 596.724 89.9433 596.724C89.1153 596.724 88.4073 596.988 87.8193 597.516C87.2433 598.044 86.9133 598.776 86.8293 599.712H93.0573ZM100.403 605.526C99.6474 605.526 98.9694 605.4 98.3694 605.148C97.7694 604.884 97.2954 604.524 96.9474 604.068C96.5994 603.6 96.4074 603.066 96.3714 602.466H98.0634C98.1114 602.958 98.3394 603.36 98.7474 603.672C99.1674 603.984 99.7134 604.14 100.385 604.14C101.009 604.14 101.501 604.002 101.861 603.726C102.221 603.45 102.401 603.102 102.401 602.682C102.401 602.25 102.209 601.932 101.825 601.728C101.441 601.512 100.847 601.302 100.043 601.098C99.3114 600.906 98.7114 600.714 98.2434 600.522C97.7874 600.318 97.3914 600.024 97.0554 599.64C96.7314 599.244 96.5694 598.728 96.5694 598.092C96.5694 597.588 96.7194 597.126 97.0194 596.706C97.3194 596.286 97.7454 595.956 98.2974 595.716C98.8494 595.464 99.4794 595.338 100.187 595.338C101.279 595.338 102.161 595.614 102.833 596.166C103.505 596.718 103.865 597.474 103.913 598.434H102.275C102.239 597.918 102.029 597.504 101.645 597.192C101.273 596.88 100.769 596.724 100.133 596.724C99.5454 596.724 99.0774 596.85 98.7294 597.102C98.3814 597.354 98.2074 597.684 98.2074 598.092C98.2074 598.416 98.3094 598.686 98.5134 598.902C98.7294 599.106 98.9934 599.274 99.3054 599.406C99.6294 599.526 100.073 599.664 100.637 599.82C101.345 600.012 101.921 600.204 102.365 600.396C102.809 600.576 103.187 600.852 103.499 601.224C103.823 601.596 103.991 602.082 104.003 602.682C104.003 603.222 103.853 603.708 103.553 604.14C103.253 604.572 102.827 604.914 102.275 605.166C101.735 605.406 101.111 605.526 100.403 605.526ZM109.808 605.526C109.052 605.526 108.374 605.4 107.774 605.148C107.174 604.884 106.7 604.524 106.352 604.068C106.004 603.6 105.812 603.066 105.776 602.466H107.468C107.516 602.958 107.744 603.36 108.152 603.672C108.572 603.984 109.118 604.14 109.79 604.14C110.414 604.14 110.906 604.002 111.266 603.726C111.626 603.45 111.806 603.102 111.806 602.682C111.806 602.25 111.614 601.932 111.23 601.728C110.846 601.512 110.252 601.302 109.448 601.098C108.716 600.906 108.116 600.714 107.648 600.522C107.192 600.318 106.796 600.024 106.46 599.64C106.136 599.244 105.974 598.728 105.974 598.092C105.974 597.588 106.124 597.126 106.424 596.706C106.724 596.286 107.15 595.956 107.702 595.716C108.254 595.464 108.884 595.338 109.592 595.338C110.684 595.338 111.566 595.614 112.238 596.166C112.91 596.718 113.27 597.474 113.318 598.434H111.68C111.644 597.918 111.434 597.504 111.05 597.192C110.678 596.88 110.174 596.724 109.538 596.724C108.95 596.724 108.482 596.85 108.134 597.102C107.786 597.354 107.612 597.684 107.612 598.092C107.612 598.416 107.714 598.686 107.918 598.902C108.134 599.106 108.398 599.274 108.71 599.406C109.034 599.526 109.478 599.664 110.042 599.82C110.75 600.012 111.326 600.204 111.77 600.396C112.214 600.576 112.592 600.852 112.904 601.224C113.228 601.596 113.396 602.082 113.408 602.682C113.408 603.222 113.258 603.708 112.958 604.14C112.658 604.572 112.232 604.914 111.68 605.166C111.14 605.406 110.516 605.526 109.808 605.526ZM122.517 596.85V602.664C122.517 603.144 122.619 603.486 122.823 603.69C123.027 603.882 123.381 603.978 123.885 603.978H125.091V605.364H123.615C122.703 605.364 122.019 605.154 121.563 604.734C121.107 604.314 120.879 603.624 120.879 602.664V596.85H119.601V595.5H120.879V593.016H122.517V595.5H125.091V596.85H122.517ZM131.971 595.32C132.715 595.32 133.387 595.482 133.987 595.806C134.587 596.118 135.055 596.592 135.391 597.228C135.739 597.864 135.913 598.638 135.913 599.55V605.364H134.293V599.784C134.293 598.8 134.047 598.05 133.555 597.534C133.063 597.006 132.391 596.742 131.539 596.742C130.675 596.742 129.985 597.012 129.469 597.552C128.965 598.092 128.713 598.878 128.713 599.91V605.364H127.075V592.044H128.713V596.904C129.037 596.4 129.481 596.01 130.045 595.734C130.621 595.458 131.263 595.32 131.971 595.32ZM137.977 600.396C137.977 599.388 138.181 598.506 138.589 597.75C138.997 596.982 139.555 596.388 140.263 595.968C140.983 595.548 141.781 595.338 142.657 595.338C143.521 595.338 144.271 595.524 144.907 595.896C145.543 596.268 146.017 596.736 146.329 597.3V595.5H147.985V605.364H146.329V603.528C146.005 604.104 145.519 604.584 144.871 604.968C144.235 605.34 143.491 605.526 142.639 605.526C141.763 605.526 140.971 605.31 140.263 604.878C139.555 604.446 138.997 603.84 138.589 603.06C138.181 602.28 137.977 601.392 137.977 600.396ZM146.329 600.414C146.329 599.67 146.179 599.022 145.879 598.47C145.579 597.918 145.171 597.498 144.655 597.21C144.151 596.91 143.593 596.76 142.981 596.76C142.369 596.76 141.811 596.904 141.307 597.192C140.803 597.48 140.401 597.9 140.101 598.452C139.801 599.004 139.651 599.652 139.651 600.396C139.651 601.152 139.801 601.812 140.101 602.376C140.401 602.928 140.803 603.354 141.307 603.654C141.811 603.942 142.369 604.086 142.981 604.086C143.593 604.086 144.151 603.942 144.655 603.654C145.171 603.354 145.579 602.928 145.879 602.376C146.179 601.812 146.329 601.158 146.329 600.414ZM155.559 595.32C156.759 595.32 157.731 595.686 158.475 596.418C159.219 597.138 159.591 598.182 159.591 599.55V605.364H157.971V599.784C157.971 598.8 157.725 598.05 157.233 597.534C156.741 597.006 156.069 596.742 155.217 596.742C154.353 596.742 153.663 597.012 153.147 597.552C152.643 598.092 152.391 598.878 152.391 599.91V605.364H150.753V595.5H152.391V596.904C152.715 596.4 153.153 596.01 153.705 595.734C154.269 595.458 154.887 595.32 155.559 595.32ZM166.364 593.844V592.35H169.748V605.364H168.092V593.844H166.364ZM182.526 595.32C183.27 595.32 183.942 595.482 184.542 595.806C185.142 596.118 185.61 596.592 185.946 597.228C186.294 597.864 186.468 598.638 186.468 599.55V605.364H184.848V599.784C184.848 598.8 184.602 598.05 184.11 597.534C183.618 597.006 182.946 596.742 182.094 596.742C181.23 596.742 180.54 597.012 180.024 597.552C179.52 598.092 179.268 598.878 179.268 599.91V605.364H177.63V592.044H179.268V596.904C179.592 596.4 180.036 596.01 180.6 595.734C181.176 595.458 181.818 595.32 182.526 595.32ZM193.446 605.526C192.522 605.526 191.682 605.316 190.926 604.896C190.182 604.476 189.594 603.882 189.162 603.114C188.742 602.334 188.532 601.434 188.532 600.414C188.532 599.406 188.748 598.518 189.18 597.75C189.624 596.97 190.224 596.376 190.98 595.968C191.736 595.548 192.582 595.338 193.518 595.338C194.454 595.338 195.3 595.548 196.056 595.968C196.812 596.376 197.406 596.964 197.838 597.732C198.282 598.5 198.504 599.394 198.504 600.414C198.504 601.434 198.276 602.334 197.82 603.114C197.376 603.882 196.77 604.476 196.002 604.896C195.234 605.316 194.382 605.526 193.446 605.526ZM193.446 604.086C194.034 604.086 194.586 603.948 195.102 603.672C195.618 603.396 196.032 602.982 196.344 602.43C196.668 601.878 196.83 601.206 196.83 600.414C196.83 599.622 196.674 598.95 196.362 598.398C196.05 597.846 195.642 597.438 195.138 597.174C194.634 596.898 194.088 596.76 193.5 596.76C192.9 596.76 192.348 596.898 191.844 597.174C191.352 597.438 190.956 597.846 190.656 598.398C190.356 598.95 190.206 599.622 190.206 600.414C190.206 601.218 190.35 601.896 190.638 602.448C190.938 603 191.334 603.414 191.826 603.69C192.318 603.954 192.858 604.086 193.446 604.086ZM209.405 595.5V605.364H207.767V603.906C207.455 604.41 207.017 604.806 206.453 605.094C205.901 605.37 205.289 605.508 204.617 605.508C203.849 605.508 203.159 605.352 202.547 605.04C201.935 604.716 201.449 604.236 201.089 603.6C200.741 602.964 200.567 602.19 200.567 601.278V595.5H202.187V601.062C202.187 602.034 202.433 602.784 202.925 603.312C203.417 603.828 204.089 604.086 204.941 604.086C205.817 604.086 206.507 603.816 207.011 603.276C207.515 602.736 207.767 601.95 207.767 600.918V595.5H209.405ZM213.809 597.102C214.097 596.538 214.505 596.1 215.033 595.788C215.573 595.476 216.227 595.32 216.995 595.32V597.012H216.563C214.727 597.012 213.809 598.008 213.809 600V605.364H212.171V595.5H213.809V597.102Z" fill="#424242"/>
<path d="M259.5 579.364L239.5 599.364H223.5" stroke="#424242" stroke-width="2" stroke-linecap="round"/>
</svg>
