<svg width="24" height="25" viewBox="0 0 24 25" fill="none" xmlns="http://www.w3.org/2000/svg">
<path d="M16 8.59082C17.5913 8.59082 19.1174 9.22296 20.2426 10.3482C21.3679 11.4734 22 12.9995 22 14.5908V21.5908H18V14.5908C18 14.0604 17.7893 13.5517 17.4142 13.1766C17.0391 12.8015 16.5304 12.5908 16 12.5908C15.4696 12.5908 14.9609 12.8015 14.5858 13.1766C14.2107 13.5517 14 14.0604 14 14.5908V21.5908H10V14.5908C10 12.9995 10.6321 11.4734 11.7574 10.3482C12.8826 9.22296 14.4087 8.59082 16 8.59082V8.59082Z" stroke="#57B8E8" stroke-width="2" stroke-linecap="round" stroke-linejoin="round"/>
<path d="M6 9.59082H2V21.5908H6V9.59082Z" stroke="#57B8E8" stroke-width="2" stroke-linecap="round" stroke-linejoin="round"/>
<path d="M4 6.59082C5.10457 6.59082 6 5.69539 6 4.59082C6 3.48625 5.10457 2.59082 4 2.59082C2.89543 2.59082 2 3.48625 2 4.59082C2 5.69539 2.89543 6.59082 4 6.59082Z" stroke="#57B8E8" stroke-width="2" stroke-linecap="round" stroke-linejoin="round"/>
</svg>
