<svg width="217" height="65" viewBox="0 0 217 65" fill="none" xmlns="http://www.w3.org/2000/svg">
<g clip-path="url(#clip0_2185_34)">
<path d="M12.0495 49.2258L0.664062 48.4988L5.78979 38.384L11.7389 39.9779L24.691 32.5L11.7389 25.0221L5.78979 26.616L0.664062 16.5012L12.0495 15.7742L13.6434 21.7232L26.5958 29.2012V14.2455L22.2404 9.89016L28.5001 0L34.7597 9.89016L30.4044 14.2455V29.2012L43.3567 21.7232L44.9506 15.7742L56.3361 16.5012L51.2103 26.616L45.2612 25.0221L32.3092 32.5L45.2612 39.9779L51.2103 38.384L56.3361 48.4988L44.9506 49.2258L43.3567 43.2768L30.4044 35.7987V50.7545L34.7597 55.1098L28.5001 65L22.2404 55.1098L26.5958 50.7545V35.7987L13.6434 43.2768L12.0495 49.2258Z" fill="#57B8E8"/>
<path d="M34.2129 42.3958L39.5183 45.4589L42.5795 56.8895L34.2129 48.5229V42.3958Z" fill="#57B8E8"/>
<path d="M22.7865 48.5229L14.4199 56.8895L17.4811 45.4589L22.7865 42.3958V48.5229Z" fill="#57B8E8"/>
<path d="M39.9258 32.4999L45.2338 29.4354L56.8039 32.4999L45.2338 35.5645L39.9258 32.4999Z" fill="#57B8E8"/>
<path d="M34.2129 22.6044V16.4772L42.5795 8.11064L39.5183 19.5412L34.2129 22.6044Z" fill="#57B8E8"/>
<path d="M22.7865 22.6044L17.4811 19.5412L14.4199 8.11064L22.7865 16.4772V22.6044Z" fill="#57B8E8"/>
<path d="M17.0735 32.4999L11.7654 35.5645L0.195312 32.4999L11.7654 29.4354L17.0735 32.4999Z" fill="#57B8E8"/>
<path d="M78.424 23.248V35.008C78.424 36.64 77.952 37.912 77.008 38.824C76.064 39.72 74.8 40.168 73.216 40.168C71.616 40.168 70.32 39.704 69.328 38.776C68.352 37.848 67.864 36.552 67.864 34.888H71.224C71.24 35.608 71.408 36.168 71.728 36.568C72.064 36.968 72.544 37.168 73.168 37.168C73.776 37.168 74.24 36.976 74.56 36.592C74.88 36.208 75.04 35.68 75.04 35.008V23.248H78.424ZM94.7035 33.064C94.7035 33.544 94.6715 33.976 94.6075 34.36H84.8875C84.9675 35.32 85.3035 36.072 85.8955 36.616C86.4875 37.16 87.2155 37.432 88.0795 37.432C89.3275 37.432 90.2155 36.896 90.7435 35.824H94.3675C93.9835 37.104 93.2475 38.16 92.1595 38.992C91.0715 39.808 89.7355 40.216 88.1515 40.216C86.8715 40.216 85.7195 39.936 84.6955 39.376C83.6875 38.8 82.8955 37.992 82.3195 36.952C81.7595 35.912 81.4795 34.712 81.4795 33.352C81.4795 31.976 81.7595 30.768 82.3195 29.728C82.8795 28.688 83.6635 27.888 84.6715 27.328C85.6795 26.768 86.8395 26.488 88.1515 26.488C89.4155 26.488 90.5435 26.76 91.5355 27.304C92.5435 27.848 93.3195 28.624 93.8635 29.632C94.4235 30.624 94.7035 31.768 94.7035 33.064ZM91.2235 32.104C91.2075 31.24 90.8955 30.552 90.2875 30.04C89.6795 29.512 88.9355 29.248 88.0555 29.248C87.2235 29.248 86.5195 29.504 85.9435 30.016C85.3835 30.512 85.0395 31.208 84.9115 32.104H91.2235ZM102.244 40.216C101.156 40.216 100.18 40.024 99.316 39.64C98.452 39.24 97.764 38.704 97.252 38.032C96.756 37.36 96.484 36.616 96.436 35.8H99.82C99.884 36.312 100.132 36.736 100.564 37.072C101.012 37.408 101.564 37.576 102.22 37.576C102.86 37.576 103.356 37.448 103.708 37.192C104.076 36.936 104.26 36.608 104.26 36.208C104.26 35.776 104.036 35.456 103.588 35.248C103.156 35.024 102.46 34.784 101.5 34.528C100.508 34.288 99.692 34.04 99.052 33.784C98.428 33.528 97.884 33.136 97.42 32.608C96.972 32.08 96.748 31.368 96.748 30.472C96.748 29.736 96.956 29.064 97.372 28.456C97.804 27.848 98.412 27.368 99.196 27.016C99.996 26.664 100.932 26.488 102.004 26.488C103.588 26.488 104.852 26.888 105.796 27.688C106.74 28.472 107.26 29.536 107.356 30.88H104.14C104.092 30.352 103.868 29.936 103.468 29.632C103.084 29.312 102.564 29.152 101.908 29.152C101.3 29.152 100.828 29.264 100.492 29.488C100.172 29.712 100.012 30.024 100.012 30.424C100.012 30.872 100.236 31.216 100.684 31.456C101.132 31.68 101.828 31.912 102.772 32.152C103.732 32.392 104.524 32.64 105.148 32.896C105.772 33.152 106.308 33.552 106.756 34.096C107.22 34.624 107.46 35.328 107.476 36.208C107.476 36.976 107.26 37.664 106.828 38.272C106.412 38.88 105.804 39.36 105.004 39.712C104.22 40.048 103.3 40.216 102.244 40.216ZM115.322 40.216C114.234 40.216 113.258 40.024 112.394 39.64C111.53 39.24 110.842 38.704 110.33 38.032C109.834 37.36 109.562 36.616 109.514 35.8H112.898C112.962 36.312 113.21 36.736 113.642 37.072C114.09 37.408 114.642 37.576 115.298 37.576C115.938 37.576 116.434 37.448 116.786 37.192C117.154 36.936 117.338 36.608 117.338 36.208C117.338 35.776 117.114 35.456 116.666 35.248C116.234 35.024 115.538 34.784 114.578 34.528C113.586 34.288 112.77 34.04 112.13 33.784C111.506 33.528 110.962 33.136 110.498 32.608C110.05 32.08 109.826 31.368 109.826 30.472C109.826 29.736 110.034 29.064 110.45 28.456C110.882 27.848 111.49 27.368 112.274 27.016C113.074 26.664 114.01 26.488 115.082 26.488C116.666 26.488 117.93 26.888 118.874 27.688C119.818 28.472 120.338 29.536 120.434 30.88H117.218C117.17 30.352 116.946 29.936 116.546 29.632C116.162 29.312 115.642 29.152 114.986 29.152C114.378 29.152 113.906 29.264 113.57 29.488C113.25 29.712 113.09 30.024 113.09 30.424C113.09 30.872 113.314 31.216 113.762 31.456C114.21 31.68 114.906 31.912 115.85 32.152C116.81 32.392 117.602 32.64 118.226 32.896C118.85 33.152 119.386 33.552 119.834 34.096C120.298 34.624 120.538 35.328 120.554 36.208C120.554 36.976 120.338 37.664 119.906 38.272C119.49 38.88 118.882 39.36 118.082 39.712C117.298 40.048 116.378 40.216 115.322 40.216ZM125.016 25.12C124.424 25.12 123.928 24.936 123.528 24.568C123.144 24.184 122.952 23.712 122.952 23.152C122.952 22.592 123.144 22.128 123.528 21.76C123.928 21.376 124.424 21.184 125.016 21.184C125.608 21.184 126.096 21.376 126.48 21.76C126.88 22.128 127.08 22.592 127.08 23.152C127.08 23.712 126.88 24.184 126.48 24.568C126.096 24.936 125.608 25.12 125.016 25.12ZM126.672 26.704V40H123.312V26.704H126.672ZM129.128 33.352C129.128 31.976 129.408 30.776 129.968 29.752C130.528 28.712 131.304 27.912 132.296 27.352C133.288 26.776 134.424 26.488 135.704 26.488C137.352 26.488 138.712 26.904 139.784 27.736C140.872 28.552 141.6 29.704 141.968 31.192H138.344C138.152 30.616 137.824 30.168 137.36 29.848C136.912 29.512 136.352 29.344 135.68 29.344C134.72 29.344 133.96 29.696 133.4 30.4C132.84 31.088 132.56 32.072 132.56 33.352C132.56 34.616 132.84 35.6 133.4 36.304C133.96 36.992 134.72 37.336 135.68 37.336C137.04 37.336 137.928 36.728 138.344 35.512H141.968C141.6 36.952 140.872 38.096 139.784 38.944C138.696 39.792 137.336 40.216 135.704 40.216C134.424 40.216 133.288 39.936 132.296 39.376C131.304 38.8 130.528 38 129.968 36.976C129.408 35.936 129.128 34.728 129.128 33.352ZM143.565 33.304C143.565 31.96 143.829 30.768 144.357 29.728C144.901 28.688 145.629 27.888 146.541 27.328C147.469 26.768 148.501 26.488 149.637 26.488C150.629 26.488 151.493 26.688 152.229 27.088C152.981 27.488 153.581 27.992 154.029 28.6V26.704H157.413V40H154.029V38.056C153.597 38.68 152.997 39.2 152.229 39.616C151.477 40.016 150.605 40.216 149.613 40.216C148.493 40.216 147.469 39.928 146.541 39.352C145.629 38.776 144.901 37.968 144.357 36.928C143.829 35.872 143.565 34.664 143.565 33.304ZM154.029 33.352C154.029 32.536 153.869 31.84 153.549 31.264C153.229 30.672 152.797 30.224 152.253 29.92C151.709 29.6 151.125 29.44 150.501 29.44C149.877 29.44 149.301 29.592 148.773 29.896C148.245 30.2 147.813 30.648 147.477 31.24C147.157 31.816 146.997 32.504 146.997 33.304C146.997 34.104 147.157 34.808 147.477 35.416C147.813 36.008 148.245 36.464 148.773 36.784C149.317 37.104 149.893 37.264 150.501 37.264C151.125 37.264 151.709 37.112 152.253 36.808C152.797 36.488 153.229 36.04 153.549 35.464C153.869 34.872 154.029 34.168 154.029 33.352ZM169.774 37.336H175.294V40H166.414V23.248H169.774V37.336ZM176.565 33.304C176.565 31.96 176.829 30.768 177.357 29.728C177.901 28.688 178.629 27.888 179.541 27.328C180.469 26.768 181.501 26.488 182.637 26.488C183.629 26.488 184.493 26.688 185.229 27.088C185.981 27.488 186.581 27.992 187.029 28.6V26.704H190.413V40H187.029V38.056C186.597 38.68 185.997 39.2 185.229 39.616C184.477 40.016 183.605 40.216 182.613 40.216C181.493 40.216 180.469 39.928 179.541 39.352C178.629 38.776 177.901 37.968 177.357 36.928C176.829 35.872 176.565 34.664 176.565 33.304ZM187.029 33.352C187.029 32.536 186.869 31.84 186.549 31.264C186.229 30.672 185.797 30.224 185.253 29.92C184.709 29.6 184.125 29.44 183.501 29.44C182.877 29.44 182.301 29.592 181.773 29.896C181.245 30.2 180.813 30.648 180.477 31.24C180.157 31.816 179.997 32.504 179.997 33.304C179.997 34.104 180.157 34.808 180.477 35.416C180.813 36.008 181.245 36.464 181.773 36.784C182.317 37.104 182.893 37.264 183.501 37.264C184.125 37.264 184.709 37.112 185.253 36.808C185.797 36.488 186.229 36.04 186.549 35.464C186.869 34.872 187.029 34.168 187.029 33.352ZM210.207 26.512C211.839 26.512 213.151 27.016 214.143 28.024C215.151 29.016 215.655 30.408 215.655 32.2V40H212.295V32.656C212.295 31.616 212.031 30.824 211.503 30.28C210.975 29.72 210.255 29.44 209.343 29.44C208.431 29.44 207.703 29.72 207.159 30.28C206.631 30.824 206.367 31.616 206.367 32.656V40H203.007V32.656C203.007 31.616 202.743 30.824 202.215 30.28C201.687 29.72 200.967 29.44 200.055 29.44C199.127 29.44 198.391 29.72 197.847 30.28C197.319 30.824 197.055 31.616 197.055 32.656V40H193.695V26.704H197.055V28.312C197.487 27.752 198.039 27.312 198.711 26.992C199.399 26.672 200.151 26.512 200.967 26.512C202.007 26.512 202.935 26.736 203.751 27.184C204.567 27.616 205.199 28.24 205.647 29.056C206.079 28.288 206.703 27.672 207.519 27.208C208.351 26.744 209.247 26.512 210.207 26.512Z" fill="#57B8E8"/>
</g>
<defs>
<clipPath id="clip0_2185_34">
<rect width="217" height="65" fill="white" transform="matrix(1 0 0 -1 0 65)"/>
</clipPath>
</defs>
</svg>
