<svg width="65" height="65" viewBox="0 0 65 65" fill="none" xmlns="http://www.w3.org/2000/svg">
<path d="M16.0495 49.2258L4.66406 48.4988L9.78979 38.384L15.7389 39.9779L28.691 32.5L15.7389 25.0221L9.78979 26.616L4.66406 16.5012L16.0495 15.7742L17.6434 21.7232L30.5958 29.2012V14.2455L26.2404 9.89016L32.5001 0L38.7597 9.89016L34.4044 14.2455V29.2012L47.3567 21.7232L48.9506 15.7742L60.3361 16.5012L55.2103 26.616L49.2612 25.0221L36.3092 32.5L49.2612 39.9779L55.2103 38.384L60.3361 48.4988L48.9506 49.2258L47.3567 43.2768L34.4044 35.7987V50.7545L38.7597 55.1098L32.5001 65L26.2404 55.1098L30.5958 50.7545V35.7987L17.6434 43.2768L16.0495 49.2258Z" fill="#57B8E8"/>
<path d="M38.2129 42.3957L43.5183 45.4589L46.5795 56.8895L38.2129 48.5229V42.3957Z" fill="#57B8E8"/>
<path d="M26.787 48.5229L18.4204 56.8895L21.4816 45.4589L26.787 42.3957V48.5229Z" fill="#57B8E8"/>
<path d="M43.9263 32.4999L49.2343 29.4354L60.8044 32.4999L49.2343 35.5645L43.9263 32.4999Z" fill="#57B8E8"/>
<path d="M38.2129 22.6043V16.4772L46.5795 8.11058L43.5183 19.5412L38.2129 22.6043Z" fill="#57B8E8"/>
<path d="M26.787 22.6043L21.4816 19.5412L18.4204 8.11058L26.787 16.4772V22.6043Z" fill="#57B8E8"/>
<path d="M21.0735 32.4999L15.7654 35.5645L4.19531 32.4999L15.7654 29.4354L21.0735 32.4999Z" fill="#57B8E8"/>
</svg>
