<svg width="91" height="91" viewBox="0 0 91 91" fill="none" xmlns="http://www.w3.org/2000/svg">
<path d="M22.4691 68.9161L6.52954 67.8983L13.7056 53.7376L22.0344 55.9691L40.1672 45.5L22.0344 35.0309L13.7056 37.2624L6.52954 23.1017L22.4691 22.0839L24.7006 30.4125L42.8339 40.8817V19.9437L36.7364 13.8462L45.4999 0L54.2635 13.8462L48.166 19.9437V40.8817L66.2993 30.4125L68.5308 22.0839L84.4703 23.1017L77.2943 37.2624L68.9655 35.0309L50.8327 45.5L68.9655 55.9691L77.2943 53.7376L84.4703 67.8983L68.5308 68.9161L66.2993 60.5875L48.166 50.1182V71.0562L54.2635 77.1538L45.4999 91L36.7364 77.1538L42.8339 71.0562V50.1182L24.7006 60.5875L22.4691 68.9161Z" fill="#57B8E8"/>
<path d="M53.498 59.354L60.9256 63.6424L65.2113 79.6453L53.498 67.932V59.354Z" fill="#57B8E8"/>
<path d="M37.5019 67.932L25.7887 79.6453L30.0744 63.6424L37.5019 59.354V67.932Z" fill="#57B8E8"/>
<path d="M61.4971 45.5L68.9283 41.2096L85.1265 45.5L68.9283 49.7903L61.4971 45.5Z" fill="#57B8E8"/>
<path d="M53.498 31.646V23.068L65.2113 11.3548L60.9256 27.3576L53.498 31.646Z" fill="#57B8E8"/>
<path d="M37.5019 31.646L30.0744 27.3576L25.7887 11.3548L37.5019 23.068V31.646Z" fill="#57B8E8"/>
<path d="M29.503 45.5L22.0717 49.7903L5.87354 45.5L22.0717 41.2096L29.503 45.5Z" fill="#57B8E8"/>
</svg>
