<svg width="29" height="28" viewBox="0 0 29 28" fill="none" xmlns="http://www.w3.org/2000/svg">
<path d="M14.5 0C6.76875 0 0.5 6.26875 0.5 14C0.5 21.7313 6.76875 28 14.5 28C22.2313 28 28.5 21.7313 28.5 14C28.5 6.26875 22.2313 0 14.5 0ZM21.2281 10.5531C21.2375 10.7 21.2375 10.8531 21.2375 11.0031C21.2375 15.5906 17.7437 20.875 11.3594 20.875C9.39062 20.875 7.56562 20.3031 6.02812 19.3188C6.30937 19.35 6.57813 19.3625 6.86563 19.3625C8.49063 19.3625 9.98438 18.8125 11.175 17.8813C9.65 17.85 8.36875 16.85 7.93125 15.475C8.46562 15.5531 8.94687 15.5531 9.49687 15.4125C8.71164 15.253 8.00586 14.8265 7.49943 14.2056C6.99299 13.5846 6.71715 12.8075 6.71875 12.0063V11.9625C7.17812 12.2219 7.71875 12.3812 8.28438 12.4031C7.80888 12.0862 7.41893 11.6569 7.1491 11.1532C6.87926 10.6495 6.73789 10.087 6.7375 9.51562C6.7375 8.86875 6.90625 8.27812 7.20938 7.76562C8.08095 8.83855 9.16853 9.71607 10.4015 10.3411C11.6344 10.9662 12.985 11.3249 14.3656 11.3938C13.875 9.03438 15.6375 7.125 17.7563 7.125C18.7563 7.125 19.6562 7.54375 20.2906 8.21875C21.075 8.07187 21.825 7.77812 22.4937 7.38437C22.2344 8.1875 21.6906 8.86562 20.9688 9.29375C21.6688 9.21875 22.3438 9.025 22.9688 8.75313C22.4969 9.44688 21.9062 10.0625 21.2281 10.5531Z" fill="#424242"/>
</svg>
