<svg width="70" height="70" viewBox="0 0 70 70" fill="none" xmlns="http://www.w3.org/2000/svg">
<circle cx="34.8325" cy="34.8042" r="34.5376" fill="#57B8E8"/>
<path d="M48.6475 18.2261H21.0174C20.2846 18.2261 19.5818 18.5172 19.0637 19.0353C18.5455 19.5535 18.2544 20.2563 18.2544 20.9891V48.6191C18.2544 49.3519 18.5455 50.0547 19.0637 50.5729C19.5818 51.091 20.2846 51.3821 21.0174 51.3821H48.6475C49.3803 51.3821 50.083 51.091 50.6012 50.5729C51.1194 50.0547 51.4105 49.3519 51.4105 48.6191V20.9891C51.4105 20.2563 51.1194 19.5535 50.6012 19.0353C50.083 18.5172 49.3803 18.2261 48.6475 18.2261Z" stroke="#F9F9F9" stroke-width="3.68401"/>
<path d="M37.8716 23.752C36.1926 23.752 34.8323 25.0736 34.8323 26.7029C34.8323 29.6547 38.4242 32.3376 40.3583 32.962C42.2924 32.3376 45.8843 29.6556 45.8843 26.7029C45.8843 25.0727 44.524 23.752 42.845 23.752C42.3609 23.7497 41.8831 23.8622 41.4508 24.0802C41.0186 24.2983 40.6442 24.6157 40.3583 25.0064C40.0724 24.6157 39.698 24.2983 39.2657 24.0802C38.8335 23.8622 38.3557 23.7497 37.8716 23.752V23.752Z" stroke="#F9F9F9" stroke-width="2.76301" stroke-linecap="round" stroke-linejoin="round"/>
</svg>
