<svg width="929" height="659" viewBox="0 0 929 659" fill="none" xmlns="http://www.w3.org/2000/svg">
<path d="M690.16 61.7154C690.328 59.5074 691.18 57.7794 692.716 56.5314C694.252 55.2834 696.244 54.6594 698.692 54.6594C700.324 54.6594 701.728 54.9594 702.904 55.5594C704.104 56.1354 705.004 56.9274 705.604 57.9354C706.228 58.9434 706.54 60.0834 706.54 61.3554C706.54 62.8434 706.108 64.1274 705.244 65.2074C704.404 66.2874 703.3 66.9834 701.932 67.2954V67.4754C703.492 67.8594 704.728 68.6154 705.64 69.7434C706.552 70.8714 707.008 72.3474 707.008 74.1714C707.008 75.5394 706.696 76.7754 706.072 77.8794C705.448 78.9594 704.512 79.8114 703.264 80.4354C702.016 81.0594 700.516 81.3714 698.764 81.3714C696.22 81.3714 694.132 80.7114 692.5 79.3914C690.868 78.0474 689.956 76.1514 689.764 73.7034H692.932C693.1 75.1434 693.688 76.3194 694.696 77.2314C695.704 78.1434 697.048 78.5994 698.728 78.5994C700.408 78.5994 701.68 78.1674 702.544 77.3034C703.432 76.4154 703.876 75.2754 703.876 73.8834C703.876 72.0834 703.276 70.7874 702.076 69.9954C700.876 69.2034 699.064 68.8074 696.64 68.8074H695.812V66.0714H696.676C698.884 66.0474 700.552 65.6874 701.68 64.9914C702.808 64.2714 703.372 63.1674 703.372 61.6794C703.372 60.4074 702.952 59.3874 702.112 58.6194C701.296 57.8514 700.12 57.4674 698.584 57.4674C697.096 57.4674 695.896 57.8514 694.984 58.6194C694.072 59.3874 693.532 60.4194 693.364 61.7154H690.16ZM711.359 61.7154C711.527 59.5074 712.379 57.7794 713.915 56.5314C715.451 55.2834 717.443 54.6594 719.891 54.6594C721.523 54.6594 722.927 54.9594 724.103 55.5594C725.303 56.1354 726.203 56.9274 726.803 57.9354C727.427 58.9434 727.739 60.0834 727.739 61.3554C727.739 62.8434 727.307 64.1274 726.443 65.2074C725.603 66.2874 724.499 66.9834 723.131 67.2954V67.4754C724.691 67.8594 725.927 68.6154 726.839 69.7434C727.751 70.8714 728.207 72.3474 728.207 74.1714C728.207 75.5394 727.895 76.7754 727.271 77.8794C726.647 78.9594 725.711 79.8114 724.463 80.4354C723.215 81.0594 721.715 81.3714 719.963 81.3714C717.419 81.3714 715.331 80.7114 713.699 79.3914C712.067 78.0474 711.155 76.1514 710.963 73.7034H714.131C714.299 75.1434 714.887 76.3194 715.895 77.2314C716.903 78.1434 718.247 78.5994 719.927 78.5994C721.607 78.5994 722.879 78.1674 723.743 77.3034C724.631 76.4154 725.075 75.2754 725.075 73.8834C725.075 72.0834 724.475 70.7874 723.275 69.9954C722.075 69.2034 720.263 68.8074 717.839 68.8074H717.011V66.0714H717.875C720.083 66.0474 721.751 65.6874 722.879 64.9914C724.007 64.2714 724.571 63.1674 724.571 61.6794C724.571 60.4074 724.151 59.3874 723.311 58.6194C722.495 57.8514 721.319 57.4674 719.783 57.4674C718.295 57.4674 717.095 57.8514 716.183 58.6194C715.271 59.3874 714.731 60.4194 714.563 61.7154H711.359ZM731.91 61.0314C731.91 59.3994 732.402 58.1034 733.386 57.1434C734.37 56.1594 735.63 55.6674 737.166 55.6674C738.702 55.6674 739.962 56.1594 740.946 57.1434C741.93 58.1034 742.422 59.3994 742.422 61.0314C742.422 62.6874 741.93 64.0074 740.946 64.9914C739.962 65.9514 738.702 66.4314 737.166 66.4314C735.63 66.4314 734.37 65.9514 733.386 64.9914C732.402 64.0074 731.91 62.6874 731.91 61.0314ZM752.934 56.0634L738.354 81.1914H735.114L749.694 56.0634H752.934ZM737.166 57.6834C736.35 57.6834 735.702 57.9714 735.222 58.5474C734.766 59.0994 734.538 59.9274 734.538 61.0314C734.538 62.1354 734.766 62.9754 735.222 63.5514C735.702 64.1274 736.35 64.4154 737.166 64.4154C737.982 64.4154 738.63 64.1274 739.11 63.5514C739.59 62.9514 739.83 62.1114 739.83 61.0314C739.83 59.9274 739.59 59.0994 739.11 58.5474C738.63 57.9714 737.982 57.6834 737.166 57.6834ZM745.698 76.2234C745.698 74.5674 746.19 73.2594 747.174 72.2994C748.158 71.3154 749.418 70.8234 750.954 70.8234C752.49 70.8234 753.738 71.3154 754.698 72.2994C755.682 73.2594 756.174 74.5674 756.174 76.2234C756.174 77.8554 755.682 79.1634 754.698 80.1474C753.738 81.1314 752.49 81.6234 750.954 81.6234C749.418 81.6234 748.158 81.1434 747.174 80.1834C746.19 79.1994 745.698 77.8794 745.698 76.2234ZM750.918 72.8754C750.102 72.8754 749.454 73.1634 748.974 73.7394C748.494 74.2914 748.254 75.1194 748.254 76.2234C748.254 77.3034 748.494 78.1314 748.974 78.7074C749.454 79.2594 750.102 79.5354 750.918 79.5354C751.734 79.5354 752.382 79.2594 752.862 78.7074C753.342 78.1314 753.582 77.3034 753.582 76.2234C753.582 75.1194 753.342 74.2914 752.862 73.7394C752.382 73.1634 751.734 72.8754 750.918 72.8754Z" fill="#424242"/>
<path d="M763.292 102.645C764.66 102.645 765.842 102.903 766.838 103.419C767.846 103.923 768.614 104.649 769.142 105.597C769.682 106.545 769.952 107.661 769.952 108.945C769.952 110.229 769.682 111.345 769.142 112.293C768.614 113.229 767.846 113.949 766.838 114.453C765.842 114.945 764.66 115.191 763.292 115.191H759.386V102.645H763.292ZM763.292 113.841C764.912 113.841 766.148 113.415 767 112.563C767.852 111.699 768.278 110.493 768.278 108.945C768.278 107.385 767.846 106.167 766.982 105.291C766.13 104.415 764.9 103.977 763.292 103.977H761.024V113.841H763.292ZM772.959 103.725C772.647 103.725 772.383 103.617 772.167 103.401C771.951 103.185 771.843 102.921 771.843 102.609C771.843 102.297 771.951 102.033 772.167 101.817C772.383 101.601 772.647 101.493 772.959 101.493C773.259 101.493 773.511 101.601 773.715 101.817C773.931 102.033 774.039 102.297 774.039 102.609C774.039 102.921 773.931 103.185 773.715 103.401C773.511 103.617 773.259 103.725 772.959 103.725ZM773.751 105.327V115.191H772.113V105.327H773.751ZM780.034 115.353C779.278 115.353 778.6 115.227 778 114.975C777.4 114.711 776.926 114.351 776.578 113.895C776.23 113.427 776.038 112.893 776.002 112.293H777.694C777.742 112.785 777.97 113.187 778.378 113.499C778.798 113.811 779.344 113.967 780.016 113.967C780.64 113.967 781.132 113.829 781.492 113.553C781.852 113.277 782.032 112.929 782.032 112.509C782.032 112.077 781.84 111.759 781.456 111.555C781.072 111.339 780.478 111.129 779.674 110.925C778.942 110.733 778.342 110.541 777.874 110.349C777.418 110.145 777.022 109.851 776.686 109.467C776.362 109.071 776.2 108.555 776.2 107.919C776.2 107.415 776.35 106.953 776.65 106.533C776.95 106.113 777.376 105.783 777.928 105.543C778.48 105.291 779.11 105.165 779.818 105.165C780.91 105.165 781.792 105.441 782.464 105.993C783.136 106.545 783.496 107.301 783.544 108.261H781.906C781.87 107.745 781.66 107.331 781.276 107.019C780.904 106.707 780.4 106.551 779.764 106.551C779.176 106.551 778.708 106.677 778.36 106.929C778.012 107.181 777.838 107.511 777.838 107.919C777.838 108.243 777.94 108.513 778.144 108.729C778.36 108.933 778.624 109.101 778.936 109.233C779.26 109.353 779.704 109.491 780.268 109.647C780.976 109.839 781.552 110.031 781.996 110.223C782.44 110.403 782.818 110.679 783.13 111.051C783.454 111.423 783.622 111.909 783.634 112.509C783.634 113.049 783.484 113.535 783.184 113.967C782.884 114.399 782.458 114.741 781.906 114.993C781.366 115.233 780.742 115.353 780.034 115.353ZM787.945 106.677V112.491C787.945 112.971 788.047 113.313 788.251 113.517C788.455 113.709 788.809 113.805 789.313 113.805H790.519V115.191H789.043C788.131 115.191 787.447 114.981 786.991 114.561C786.535 114.141 786.307 113.451 786.307 112.491V106.677H785.029V105.327H786.307V102.843H787.945V105.327H790.519V106.677H787.945ZM794.141 106.929C794.429 106.365 794.837 105.927 795.365 105.615C795.905 105.303 796.559 105.147 797.327 105.147V106.839H796.895C795.059 106.839 794.141 107.835 794.141 109.827V115.191H792.503V105.327H794.141V106.929ZM798.606 110.223C798.606 109.215 798.81 108.333 799.218 107.577C799.626 106.809 800.184 106.215 800.892 105.795C801.612 105.375 802.41 105.165 803.286 105.165C804.15 105.165 804.9 105.351 805.536 105.723C806.172 106.095 806.646 106.563 806.958 107.127V105.327H808.614V115.191H806.958V113.355C806.634 113.931 806.148 114.411 805.5 114.795C804.864 115.167 804.12 115.353 803.268 115.353C802.392 115.353 801.6 115.137 800.892 114.705C800.184 114.273 799.626 113.667 799.218 112.887C798.81 112.107 798.606 111.219 798.606 110.223ZM806.958 110.241C806.958 109.497 806.808 108.849 806.508 108.297C806.208 107.745 805.8 107.325 805.284 107.037C804.78 106.737 804.222 106.587 803.61 106.587C802.998 106.587 802.44 106.731 801.936 107.019C801.432 107.307 801.03 107.727 800.73 108.279C800.43 108.831 800.28 109.479 800.28 110.223C800.28 110.979 800.43 111.639 800.73 112.203C801.03 112.755 801.432 113.181 801.936 113.481C802.44 113.769 802.998 113.913 803.61 113.913C804.222 113.913 804.78 113.769 805.284 113.481C805.8 113.181 806.208 112.755 806.508 112.203C806.808 111.639 806.958 110.985 806.958 110.241ZM810.77 110.241C810.77 109.221 810.974 108.333 811.382 107.577C811.79 106.809 812.354 106.215 813.074 105.795C813.806 105.375 814.64 105.165 815.576 105.165C816.788 105.165 817.784 105.459 818.564 106.047C819.356 106.635 819.878 107.451 820.13 108.495H818.366C818.198 107.895 817.868 107.421 817.376 107.073C816.896 106.725 816.296 106.551 815.576 106.551C814.64 106.551 813.884 106.875 813.308 107.523C812.732 108.159 812.444 109.065 812.444 110.241C812.444 111.429 812.732 112.347 813.308 112.995C813.884 113.643 814.64 113.967 815.576 113.967C816.296 113.967 816.896 113.799 817.376 113.463C817.856 113.127 818.186 112.647 818.366 112.023H820.13C819.866 113.031 819.338 113.841 818.546 114.453C817.754 115.053 816.764 115.353 815.576 115.353C814.64 115.353 813.806 115.143 813.074 114.723C812.354 114.303 811.79 113.709 811.382 112.941C810.974 112.173 810.77 111.273 810.77 110.241ZM824.314 106.677V112.491C824.314 112.971 824.416 113.313 824.62 113.517C824.824 113.709 825.178 113.805 825.682 113.805H826.888V115.191H825.412C824.5 115.191 823.816 114.981 823.36 114.561C822.904 114.141 822.676 113.451 822.676 112.491V106.677H821.398V105.327H822.676V102.843H824.314V105.327H826.888V106.677H824.314ZM829.718 103.725C829.406 103.725 829.142 103.617 828.926 103.401C828.71 103.185 828.602 102.921 828.602 102.609C828.602 102.297 828.71 102.033 828.926 101.817C829.142 101.601 829.406 101.493 829.718 101.493C830.018 101.493 830.27 101.601 830.474 101.817C830.69 102.033 830.798 102.297 830.798 102.609C830.798 102.921 830.69 103.185 830.474 103.401C830.27 103.617 830.018 103.725 829.718 103.725ZM830.51 105.327V115.191H828.872V105.327H830.51ZM837.604 115.353C836.68 115.353 835.84 115.143 835.084 114.723C834.34 114.303 833.752 113.709 833.32 112.941C832.9 112.161 832.69 111.261 832.69 110.241C832.69 109.233 832.906 108.345 833.338 107.577C833.782 106.797 834.382 106.203 835.138 105.795C835.894 105.375 836.74 105.165 837.676 105.165C838.612 105.165 839.458 105.375 840.214 105.795C840.97 106.203 841.564 106.791 841.996 107.559C842.44 108.327 842.662 109.221 842.662 110.241C842.662 111.261 842.434 112.161 841.978 112.941C841.534 113.709 840.928 114.303 840.16 114.723C839.392 115.143 838.54 115.353 837.604 115.353ZM837.604 113.913C838.192 113.913 838.744 113.775 839.26 113.499C839.776 113.223 840.19 112.809 840.502 112.257C840.826 111.705 840.988 111.033 840.988 110.241C840.988 109.449 840.832 108.777 840.52 108.225C840.208 107.673 839.8 107.265 839.296 107.001C838.792 106.725 838.246 106.587 837.658 106.587C837.058 106.587 836.506 106.725 836.002 107.001C835.51 107.265 835.114 107.673 834.814 108.225C834.514 108.777 834.364 109.449 834.364 110.241C834.364 111.045 834.508 111.723 834.796 112.275C835.096 112.827 835.492 113.241 835.984 113.517C836.476 113.781 837.016 113.913 837.604 113.913ZM849.622 105.147C850.822 105.147 851.794 105.513 852.538 106.245C853.282 106.965 853.654 108.009 853.654 109.377V115.191H852.034V109.611C852.034 108.627 851.788 107.877 851.296 107.361C850.804 106.833 850.132 106.569 849.28 106.569C848.416 106.569 847.726 106.839 847.21 107.379C846.706 107.919 846.454 108.705 846.454 109.737V115.191H844.816V105.327H846.454V106.731C846.778 106.227 847.216 105.837 847.768 105.561C848.332 105.285 848.95 105.147 849.622 105.147Z" fill="#424242"/>
<path d="M717 89.1914L737 109.191H753" stroke="#424242" stroke-width="2" stroke-linecap="round"/>
<path d="M745.368 437.151V434.163H752.136V460.191H748.824V437.151H745.368ZM773.783 436.719L763.775 460.191H760.463L770.615 437.043H756.719V434.235H773.783V436.719ZM776.696 440.031C776.696 438.399 777.188 437.103 778.172 436.143C779.156 435.159 780.416 434.667 781.952 434.667C783.488 434.667 784.748 435.159 785.732 436.143C786.716 437.103 787.208 438.399 787.208 440.031C787.208 441.687 786.716 443.007 785.732 443.991C784.748 444.951 783.488 445.431 781.952 445.431C780.416 445.431 779.156 444.951 778.172 443.991C777.188 443.007 776.696 441.687 776.696 440.031ZM797.72 435.063L783.14 460.191H779.9L794.48 435.063H797.72ZM781.952 436.683C781.136 436.683 780.488 436.971 780.008 437.547C779.552 438.099 779.324 438.927 779.324 440.031C779.324 441.135 779.552 441.975 780.008 442.551C780.488 443.127 781.136 443.415 781.952 443.415C782.768 443.415 783.416 443.127 783.896 442.551C784.376 441.951 784.616 441.111 784.616 440.031C784.616 438.927 784.376 438.099 783.896 437.547C783.416 436.971 782.768 436.683 781.952 436.683ZM790.484 455.223C790.484 453.567 790.976 452.259 791.96 451.299C792.944 450.315 794.204 449.823 795.74 449.823C797.276 449.823 798.524 450.315 799.484 451.299C800.468 452.259 800.96 453.567 800.96 455.223C800.96 456.855 800.468 458.163 799.484 459.147C798.524 460.131 797.276 460.623 795.74 460.623C794.204 460.623 792.944 460.143 791.96 459.183C790.976 458.199 790.484 456.879 790.484 455.223ZM795.704 451.875C794.888 451.875 794.24 452.163 793.76 452.739C793.28 453.291 793.04 454.119 793.04 455.223C793.04 456.303 793.28 457.131 793.76 457.707C794.24 458.259 794.888 458.535 795.704 458.535C796.52 458.535 797.168 458.259 797.648 457.707C798.128 457.131 798.368 456.303 798.368 455.223C798.368 454.119 798.128 453.291 797.648 452.739C797.168 452.163 796.52 451.875 795.704 451.875Z" fill="#424242"/>
<path d="M819.292 481.645C820.66 481.645 821.842 481.903 822.838 482.419C823.846 482.923 824.614 483.649 825.142 484.597C825.682 485.545 825.952 486.661 825.952 487.945C825.952 489.229 825.682 490.345 825.142 491.293C824.614 492.229 823.846 492.949 822.838 493.453C821.842 493.945 820.66 494.191 819.292 494.191H815.386V481.645H819.292ZM819.292 492.841C820.912 492.841 822.148 492.415 823 491.563C823.852 490.699 824.278 489.493 824.278 487.945C824.278 486.385 823.846 485.167 822.982 484.291C822.13 483.415 820.9 482.977 819.292 482.977H817.024V492.841H819.292ZM828.959 482.725C828.647 482.725 828.383 482.617 828.167 482.401C827.951 482.185 827.843 481.921 827.843 481.609C827.843 481.297 827.951 481.033 828.167 480.817C828.383 480.601 828.647 480.493 828.959 480.493C829.259 480.493 829.511 480.601 829.715 480.817C829.931 481.033 830.039 481.297 830.039 481.609C830.039 481.921 829.931 482.185 829.715 482.401C829.511 482.617 829.259 482.725 828.959 482.725ZM829.751 484.327V494.191H828.113V484.327H829.751ZM836.034 494.353C835.278 494.353 834.6 494.227 834 493.975C833.4 493.711 832.926 493.351 832.578 492.895C832.23 492.427 832.038 491.893 832.002 491.293H833.694C833.742 491.785 833.97 492.187 834.378 492.499C834.798 492.811 835.344 492.967 836.016 492.967C836.64 492.967 837.132 492.829 837.492 492.553C837.852 492.277 838.032 491.929 838.032 491.509C838.032 491.077 837.84 490.759 837.456 490.555C837.072 490.339 836.478 490.129 835.674 489.925C834.942 489.733 834.342 489.541 833.874 489.349C833.418 489.145 833.022 488.851 832.686 488.467C832.362 488.071 832.2 487.555 832.2 486.919C832.2 486.415 832.35 485.953 832.65 485.533C832.95 485.113 833.376 484.783 833.928 484.543C834.48 484.291 835.11 484.165 835.818 484.165C836.91 484.165 837.792 484.441 838.464 484.993C839.136 485.545 839.496 486.301 839.544 487.261H837.906C837.87 486.745 837.66 486.331 837.276 486.019C836.904 485.707 836.4 485.551 835.764 485.551C835.176 485.551 834.708 485.677 834.36 485.929C834.012 486.181 833.838 486.511 833.838 486.919C833.838 487.243 833.94 487.513 834.144 487.729C834.36 487.933 834.624 488.101 834.936 488.233C835.26 488.353 835.704 488.491 836.268 488.647C836.976 488.839 837.552 489.031 837.996 489.223C838.44 489.403 838.818 489.679 839.13 490.051C839.454 490.423 839.622 490.909 839.634 491.509C839.634 492.049 839.484 492.535 839.184 492.967C838.884 493.399 838.458 493.741 837.906 493.993C837.366 494.233 836.742 494.353 836.034 494.353ZM843.945 485.677V491.491C843.945 491.971 844.047 492.313 844.251 492.517C844.455 492.709 844.809 492.805 845.313 492.805H846.519V494.191H845.043C844.131 494.191 843.447 493.981 842.991 493.561C842.535 493.141 842.307 492.451 842.307 491.491V485.677H841.029V484.327H842.307V481.843H843.945V484.327H846.519V485.677H843.945ZM850.141 485.929C850.429 485.365 850.837 484.927 851.365 484.615C851.905 484.303 852.559 484.147 853.327 484.147V485.839H852.895C851.059 485.839 850.141 486.835 850.141 488.827V494.191H848.503V484.327H850.141V485.929ZM854.606 489.223C854.606 488.215 854.81 487.333 855.218 486.577C855.626 485.809 856.184 485.215 856.892 484.795C857.612 484.375 858.41 484.165 859.286 484.165C860.15 484.165 860.9 484.351 861.536 484.723C862.172 485.095 862.646 485.563 862.958 486.127V484.327H864.614V494.191H862.958V492.355C862.634 492.931 862.148 493.411 861.5 493.795C860.864 494.167 860.12 494.353 859.268 494.353C858.392 494.353 857.6 494.137 856.892 493.705C856.184 493.273 855.626 492.667 855.218 491.887C854.81 491.107 854.606 490.219 854.606 489.223ZM862.958 489.241C862.958 488.497 862.808 487.849 862.508 487.297C862.208 486.745 861.8 486.325 861.284 486.037C860.78 485.737 860.222 485.587 859.61 485.587C858.998 485.587 858.44 485.731 857.936 486.019C857.432 486.307 857.03 486.727 856.73 487.279C856.43 487.831 856.28 488.479 856.28 489.223C856.28 489.979 856.43 490.639 856.73 491.203C857.03 491.755 857.432 492.181 857.936 492.481C858.44 492.769 858.998 492.913 859.61 492.913C860.222 492.913 860.78 492.769 861.284 492.481C861.8 492.181 862.208 491.755 862.508 491.203C862.808 490.639 862.958 489.985 862.958 489.241ZM866.77 489.241C866.77 488.221 866.974 487.333 867.382 486.577C867.79 485.809 868.354 485.215 869.074 484.795C869.806 484.375 870.64 484.165 871.576 484.165C872.788 484.165 873.784 484.459 874.564 485.047C875.356 485.635 875.878 486.451 876.13 487.495H874.366C874.198 486.895 873.868 486.421 873.376 486.073C872.896 485.725 872.296 485.551 871.576 485.551C870.64 485.551 869.884 485.875 869.308 486.523C868.732 487.159 868.444 488.065 868.444 489.241C868.444 490.429 868.732 491.347 869.308 491.995C869.884 492.643 870.64 492.967 871.576 492.967C872.296 492.967 872.896 492.799 873.376 492.463C873.856 492.127 874.186 491.647 874.366 491.023H876.13C875.866 492.031 875.338 492.841 874.546 493.453C873.754 494.053 872.764 494.353 871.576 494.353C870.64 494.353 869.806 494.143 869.074 493.723C868.354 493.303 867.79 492.709 867.382 491.941C866.974 491.173 866.77 490.273 866.77 489.241ZM880.314 485.677V491.491C880.314 491.971 880.416 492.313 880.62 492.517C880.824 492.709 881.178 492.805 881.682 492.805H882.888V494.191H881.412C880.5 494.191 879.816 493.981 879.36 493.561C878.904 493.141 878.676 492.451 878.676 491.491V485.677H877.398V484.327H878.676V481.843H880.314V484.327H882.888V485.677H880.314ZM885.718 482.725C885.406 482.725 885.142 482.617 884.926 482.401C884.71 482.185 884.602 481.921 884.602 481.609C884.602 481.297 884.71 481.033 884.926 480.817C885.142 480.601 885.406 480.493 885.718 480.493C886.018 480.493 886.27 480.601 886.474 480.817C886.69 481.033 886.798 481.297 886.798 481.609C886.798 481.921 886.69 482.185 886.474 482.401C886.27 482.617 886.018 482.725 885.718 482.725ZM886.51 484.327V494.191H884.872V484.327H886.51ZM893.604 494.353C892.68 494.353 891.84 494.143 891.084 493.723C890.34 493.303 889.752 492.709 889.32 491.941C888.9 491.161 888.69 490.261 888.69 489.241C888.69 488.233 888.906 487.345 889.338 486.577C889.782 485.797 890.382 485.203 891.138 484.795C891.894 484.375 892.74 484.165 893.676 484.165C894.612 484.165 895.458 484.375 896.214 484.795C896.97 485.203 897.564 485.791 897.996 486.559C898.44 487.327 898.662 488.221 898.662 489.241C898.662 490.261 898.434 491.161 897.978 491.941C897.534 492.709 896.928 493.303 896.16 493.723C895.392 494.143 894.54 494.353 893.604 494.353ZM893.604 492.913C894.192 492.913 894.744 492.775 895.26 492.499C895.776 492.223 896.19 491.809 896.502 491.257C896.826 490.705 896.988 490.033 896.988 489.241C896.988 488.449 896.832 487.777 896.52 487.225C896.208 486.673 895.8 486.265 895.296 486.001C894.792 485.725 894.246 485.587 893.658 485.587C893.058 485.587 892.506 485.725 892.002 486.001C891.51 486.265 891.114 486.673 890.814 487.225C890.514 487.777 890.364 488.449 890.364 489.241C890.364 490.045 890.508 490.723 890.796 491.275C891.096 491.827 891.492 492.241 891.984 492.517C892.476 492.781 893.016 492.913 893.604 492.913ZM905.622 484.147C906.822 484.147 907.794 484.513 908.538 485.245C909.282 485.965 909.654 487.009 909.654 488.377V494.191H908.034V488.611C908.034 487.627 907.788 486.877 907.296 486.361C906.804 485.833 906.132 485.569 905.28 485.569C904.416 485.569 903.726 485.839 903.21 486.379C902.706 486.919 902.454 487.705 902.454 488.737V494.191H900.816V484.327H902.454V485.731C902.778 485.227 903.216 484.837 903.768 484.561C904.332 484.285 904.95 484.147 905.622 484.147Z" fill="#424242"/>
<path d="M773 468.191L793 488.191H809" stroke="#424242" stroke-width="2" stroke-linecap="round"/>
<path d="M165.506 252.563C168.554 250.115 170.942 248.111 172.67 246.551C174.398 244.967 175.85 243.323 177.026 241.619C178.226 239.891 178.826 238.199 178.826 236.543C178.826 234.983 178.442 233.759 177.674 232.871C176.93 231.959 175.718 231.503 174.038 231.503C172.406 231.503 171.134 232.019 170.222 233.051C169.334 234.059 168.854 235.415 168.782 237.119H165.614C165.71 234.431 166.526 232.355 168.062 230.891C169.598 229.427 171.578 228.695 174.002 228.695C176.474 228.695 178.43 229.379 179.87 230.747C181.334 232.115 182.066 233.999 182.066 236.399C182.066 238.391 181.466 240.335 180.266 242.231C179.09 244.103 177.746 245.759 176.234 247.199C174.722 248.615 172.79 250.271 170.438 252.167H182.822V254.903H165.506V252.563ZM191.361 241.655C190.017 241.127 188.985 240.359 188.265 239.351C187.545 238.343 187.185 237.119 187.185 235.679C187.185 234.383 187.509 233.219 188.157 232.187C188.805 231.131 189.765 230.303 191.037 229.703C192.333 229.079 193.893 228.767 195.717 228.767C197.541 228.767 199.089 229.079 200.361 229.703C201.657 230.303 202.629 231.131 203.277 232.187C203.949 233.219 204.285 234.383 204.285 235.679C204.285 237.071 203.913 238.295 203.169 239.351C202.425 240.383 201.405 241.151 200.109 241.655C201.597 242.111 202.773 242.915 203.637 244.067C204.525 245.195 204.969 246.563 204.969 248.171C204.969 249.731 204.585 251.099 203.817 252.275C203.049 253.427 201.957 254.327 200.541 254.975C199.149 255.599 197.541 255.911 195.717 255.911C193.893 255.911 192.285 255.599 190.893 254.975C189.525 254.327 188.457 253.427 187.689 252.275C186.921 251.099 186.537 249.731 186.537 248.171C186.537 246.563 186.969 245.183 187.833 244.031C188.697 242.879 189.873 242.087 191.361 241.655ZM201.117 236.075C201.117 234.611 200.637 233.483 199.677 232.691C198.717 231.899 197.397 231.503 195.717 231.503C194.061 231.503 192.753 231.899 191.793 232.691C190.833 233.483 190.353 234.623 190.353 236.111C190.353 237.455 190.845 238.535 191.829 239.351C192.837 240.167 194.133 240.575 195.717 240.575C197.325 240.575 198.621 240.167 199.605 239.351C200.613 238.511 201.117 237.419 201.117 236.075ZM195.717 243.095C193.941 243.095 192.489 243.515 191.361 244.355C190.233 245.171 189.669 246.407 189.669 248.063C189.669 249.599 190.209 250.835 191.289 251.771C192.393 252.707 193.869 253.175 195.717 253.175C197.565 253.175 199.029 252.707 200.109 251.771C201.189 250.835 201.729 249.599 201.729 248.063C201.729 246.455 201.177 245.231 200.073 244.391C198.969 243.527 197.517 243.095 195.717 243.095ZM208.6 235.031C208.6 233.399 209.092 232.103 210.076 231.143C211.06 230.159 212.32 229.667 213.856 229.667C215.392 229.667 216.652 230.159 217.636 231.143C218.62 232.103 219.112 233.399 219.112 235.031C219.112 236.687 218.62 238.007 217.636 238.991C216.652 239.951 215.392 240.431 213.856 240.431C212.32 240.431 211.06 239.951 210.076 238.991C209.092 238.007 208.6 236.687 208.6 235.031ZM229.624 230.063L215.044 255.191H211.804L226.384 230.063H229.624ZM213.856 231.683C213.04 231.683 212.392 231.971 211.912 232.547C211.456 233.099 211.228 233.927 211.228 235.031C211.228 236.135 211.456 236.975 211.912 237.551C212.392 238.127 213.04 238.415 213.856 238.415C214.672 238.415 215.32 238.127 215.8 237.551C216.28 236.951 216.52 236.111 216.52 235.031C216.52 233.927 216.28 233.099 215.8 232.547C215.32 231.971 214.672 231.683 213.856 231.683ZM222.388 250.223C222.388 248.567 222.88 247.259 223.864 246.299C224.848 245.315 226.108 244.823 227.644 244.823C229.18 244.823 230.428 245.315 231.388 246.299C232.372 247.259 232.864 248.567 232.864 250.223C232.864 251.855 232.372 253.163 231.388 254.147C230.428 255.131 229.18 255.623 227.644 255.623C226.108 255.623 224.848 255.143 223.864 254.183C222.88 253.199 222.388 251.879 222.388 250.223ZM227.608 246.875C226.792 246.875 226.144 247.163 225.664 247.739C225.184 248.291 224.944 249.119 224.944 250.223C224.944 251.303 225.184 252.131 225.664 252.707C226.144 253.259 226.792 253.535 227.608 253.535C228.424 253.535 229.072 253.259 229.552 252.707C230.032 252.131 230.272 251.303 230.272 250.223C230.272 249.119 230.032 248.291 229.552 247.739C229.072 247.163 228.424 246.875 227.608 246.875Z" fill="#424242"/>
<path d="M21.4068 277.977V282.171H25.9788V283.521H21.4068V287.841H26.5188V289.191H19.7688V276.627H26.5188V277.977H21.4068ZM33.8033 279.147C35.0033 279.147 35.9753 279.513 36.7193 280.245C37.4633 280.965 37.8353 282.009 37.8353 283.377V289.191H36.2153V283.611C36.2153 282.627 35.9693 281.877 35.4773 281.361C34.9853 280.833 34.3133 280.569 33.4613 280.569C32.5973 280.569 31.9073 280.839 31.3913 281.379C30.8873 281.919 30.6353 282.705 30.6353 283.737V289.191H28.9973V279.327H30.6353V280.731C30.9593 280.227 31.3973 279.837 31.9493 279.561C32.5133 279.285 33.1313 279.147 33.8033 279.147ZM42.509 280.677V286.491C42.509 286.971 42.611 287.313 42.815 287.517C43.019 287.709 43.373 287.805 43.877 287.805H45.083V289.191H43.607C42.695 289.191 42.011 288.981 41.555 288.561C41.099 288.141 40.871 287.451 40.871 286.491V280.677H39.593V279.327H40.871V276.843H42.509V279.327H45.083V280.677H42.509ZM56.0676 283.881C56.0676 284.193 56.0496 284.523 56.0136 284.871H48.1296C48.1896 285.843 48.5196 286.605 49.1196 287.157C49.7316 287.697 50.4696 287.967 51.3336 287.967C52.0416 287.967 52.6296 287.805 53.0976 287.481C53.5776 287.145 53.9136 286.701 54.1056 286.149H55.8696C55.6056 287.097 55.0776 287.871 54.2856 288.471C53.4936 289.059 52.5096 289.353 51.3336 289.353C50.3976 289.353 49.5576 289.143 48.8136 288.723C48.0816 288.303 47.5056 287.709 47.0856 286.941C46.6656 286.161 46.4556 285.261 46.4556 284.241C46.4556 283.221 46.6596 282.327 47.0676 281.559C47.4756 280.791 48.0456 280.203 48.7776 279.795C49.5216 279.375 50.3736 279.165 51.3336 279.165C52.2696 279.165 53.0976 279.369 53.8176 279.777C54.5376 280.185 55.0896 280.749 55.4736 281.469C55.8696 282.177 56.0676 282.981 56.0676 283.881ZM54.3756 283.539C54.3756 282.915 54.2376 282.381 53.9616 281.937C53.6856 281.481 53.3076 281.139 52.8276 280.911C52.3596 280.671 51.8376 280.551 51.2616 280.551C50.4336 280.551 49.7256 280.815 49.1376 281.343C48.5616 281.871 48.2316 282.603 48.1476 283.539H54.3756ZM59.8678 280.929C60.1558 280.365 60.5638 279.927 61.0918 279.615C61.6318 279.303 62.2858 279.147 63.0538 279.147V280.839H62.6218C60.7858 280.839 59.8678 281.835 59.8678 283.827V289.191H58.2298V279.327H59.8678V280.929ZM66.9426 280.677V286.491C66.9426 286.971 67.0446 287.313 67.2486 287.517C67.4526 287.709 67.8066 287.805 68.3106 287.805H69.5166V289.191H68.0406C67.1286 289.191 66.4446 288.981 65.9886 288.561C65.5326 288.141 65.3046 287.451 65.3046 286.491V280.677H64.0266V279.327H65.3046V276.843H66.9426V279.327H69.5166V280.677H66.9426ZM70.8892 284.223C70.8892 283.215 71.0932 282.333 71.5012 281.577C71.9092 280.809 72.4672 280.215 73.1752 279.795C73.8952 279.375 74.6932 279.165 75.5692 279.165C76.4332 279.165 77.1832 279.351 77.8192 279.723C78.4552 280.095 78.9292 280.563 79.2412 281.127V279.327H80.8972V289.191H79.2412V287.355C78.9172 287.931 78.4312 288.411 77.7832 288.795C77.1472 289.167 76.4032 289.353 75.5512 289.353C74.6752 289.353 73.8832 289.137 73.1752 288.705C72.4672 288.273 71.9092 287.667 71.5012 286.887C71.0932 286.107 70.8892 285.219 70.8892 284.223ZM79.2412 284.241C79.2412 283.497 79.0912 282.849 78.7912 282.297C78.4912 281.745 78.0832 281.325 77.5672 281.037C77.0632 280.737 76.5052 280.587 75.8932 280.587C75.2812 280.587 74.7232 280.731 74.2192 281.019C73.7152 281.307 73.3132 281.727 73.0132 282.279C72.7132 282.831 72.5632 283.479 72.5632 284.223C72.5632 284.979 72.7132 285.639 73.0132 286.203C73.3132 286.755 73.7152 287.181 74.2192 287.481C74.7232 287.769 75.2812 287.913 75.8932 287.913C76.5052 287.913 77.0632 287.769 77.5672 287.481C78.0832 287.181 78.4912 286.755 78.7912 286.203C79.0912 285.639 79.2412 284.985 79.2412 284.241ZM84.5113 277.725C84.1993 277.725 83.9353 277.617 83.7193 277.401C83.5033 277.185 83.3953 276.921 83.3953 276.609C83.3953 276.297 83.5033 276.033 83.7193 275.817C83.9353 275.601 84.1993 275.493 84.5113 275.493C84.8113 275.493 85.0633 275.601 85.2673 275.817C85.4833 276.033 85.5913 276.297 85.5913 276.609C85.5913 276.921 85.4833 277.185 85.2673 277.401C85.0633 277.617 84.8113 277.725 84.5113 277.725ZM85.3033 279.327V289.191H83.6653V279.327H85.3033ZM92.901 279.147C94.101 279.147 95.073 279.513 95.817 280.245C96.561 280.965 96.933 282.009 96.933 283.377V289.191H95.313V283.611C95.313 282.627 95.067 281.877 94.575 281.361C94.083 280.833 93.411 280.569 92.559 280.569C91.695 280.569 91.005 280.839 90.489 281.379C89.985 281.919 89.733 282.705 89.733 283.737V289.191H88.095V279.327H89.733V280.731C90.057 280.227 90.495 279.837 91.047 279.561C91.611 279.285 92.229 279.147 92.901 279.147ZM111.471 279.147C112.239 279.147 112.923 279.309 113.523 279.633C114.123 279.945 114.597 280.419 114.945 281.055C115.293 281.691 115.467 282.465 115.467 283.377V289.191H113.847V283.611C113.847 282.627 113.601 281.877 113.109 281.361C112.629 280.833 111.975 280.569 111.147 280.569C110.295 280.569 109.617 280.845 109.113 281.397C108.609 281.937 108.357 282.723 108.357 283.755V289.191H106.737V283.611C106.737 282.627 106.491 281.877 105.999 281.361C105.519 280.833 104.865 280.569 104.037 280.569C103.185 280.569 102.507 280.845 102.003 281.397C101.499 281.937 101.247 282.723 101.247 283.755V289.191H99.6087V279.327H101.247V280.749C101.571 280.233 102.003 279.837 102.543 279.561C103.095 279.285 103.701 279.147 104.361 279.147C105.189 279.147 105.921 279.333 106.557 279.705C107.193 280.077 107.667 280.623 107.979 281.343C108.255 280.647 108.711 280.107 109.347 279.723C109.983 279.339 110.691 279.147 111.471 279.147ZM127.154 283.881C127.154 284.193 127.136 284.523 127.1 284.871H119.216C119.276 285.843 119.606 286.605 120.206 287.157C120.818 287.697 121.556 287.967 122.42 287.967C123.128 287.967 123.716 287.805 124.184 287.481C124.664 287.145 125 286.701 125.192 286.149H126.956C126.692 287.097 126.164 287.871 125.372 288.471C124.58 289.059 123.596 289.353 122.42 289.353C121.484 289.353 120.644 289.143 119.9 288.723C119.168 288.303 118.592 287.709 118.172 286.941C117.752 286.161 117.542 285.261 117.542 284.241C117.542 283.221 117.746 282.327 118.154 281.559C118.562 280.791 119.132 280.203 119.864 279.795C120.608 279.375 121.46 279.165 122.42 279.165C123.356 279.165 124.184 279.369 124.904 279.777C125.624 280.185 126.176 280.749 126.56 281.469C126.956 282.177 127.154 282.981 127.154 283.881ZM125.462 283.539C125.462 282.915 125.324 282.381 125.048 281.937C124.772 281.481 124.394 281.139 123.914 280.911C123.446 280.671 122.924 280.551 122.348 280.551C121.52 280.551 120.812 280.815 120.224 281.343C119.648 281.871 119.318 282.603 119.234 283.539H125.462ZM134.122 279.147C135.322 279.147 136.294 279.513 137.038 280.245C137.782 280.965 138.154 282.009 138.154 283.377V289.191H136.534V283.611C136.534 282.627 136.288 281.877 135.796 281.361C135.304 280.833 134.632 280.569 133.78 280.569C132.916 280.569 132.226 280.839 131.71 281.379C131.206 281.919 130.954 282.705 130.954 283.737V289.191H129.316V279.327H130.954V280.731C131.278 280.227 131.716 279.837 132.268 279.561C132.832 279.285 133.45 279.147 134.122 279.147ZM142.827 280.677V286.491C142.827 286.971 142.929 287.313 143.133 287.517C143.337 287.709 143.691 287.805 144.195 287.805H145.401V289.191H143.925C143.013 289.191 142.329 288.981 141.873 288.561C141.417 288.141 141.189 287.451 141.189 286.491V280.677H139.911V279.327H141.189V276.843H142.827V279.327H145.401V280.677H142.827Z" fill="#424242"/>
<path d="M188 263.191L168 283.191H152" stroke="#424242" stroke-width="2" stroke-linecap="round"/>
<path d="M412.506 601.563C415.554 599.115 417.942 597.111 419.67 595.551C421.398 593.967 422.85 592.323 424.026 590.619C425.226 588.891 425.826 587.199 425.826 585.543C425.826 583.983 425.442 582.759 424.674 581.871C423.93 580.959 422.718 580.503 421.038 580.503C419.406 580.503 418.134 581.019 417.222 582.051C416.334 583.059 415.854 584.415 415.782 586.119H412.614C412.71 583.431 413.526 581.355 415.062 579.891C416.598 578.427 418.578 577.695 421.002 577.695C423.474 577.695 425.43 578.379 426.87 579.747C428.334 581.115 429.066 582.999 429.066 585.399C429.066 587.391 428.466 589.335 427.266 591.231C426.09 593.103 424.746 594.759 423.234 596.199C421.722 597.615 419.79 599.271 417.438 601.167H429.822V603.903H412.506V601.563ZM433.213 601.563C436.261 599.115 438.649 597.111 440.377 595.551C442.105 593.967 443.557 592.323 444.733 590.619C445.933 588.891 446.533 587.199 446.533 585.543C446.533 583.983 446.149 582.759 445.381 581.871C444.637 580.959 443.425 580.503 441.745 580.503C440.113 580.503 438.841 581.019 437.929 582.051C437.041 583.059 436.561 584.415 436.489 586.119H433.321C433.417 583.431 434.233 581.355 435.769 579.891C437.305 578.427 439.285 577.695 441.709 577.695C444.181 577.695 446.137 578.379 447.577 579.747C449.041 581.115 449.773 582.999 449.773 585.399C449.773 587.391 449.173 589.335 447.973 591.231C446.797 593.103 445.453 594.759 443.941 596.199C442.429 597.615 440.497 599.271 438.145 601.167H450.529V603.903H433.213V601.563ZM453.596 584.031C453.596 582.399 454.088 581.103 455.072 580.143C456.056 579.159 457.316 578.667 458.852 578.667C460.388 578.667 461.648 579.159 462.632 580.143C463.616 581.103 464.108 582.399 464.108 584.031C464.108 585.687 463.616 587.007 462.632 587.991C461.648 588.951 460.388 589.431 458.852 589.431C457.316 589.431 456.056 588.951 455.072 587.991C454.088 587.007 453.596 585.687 453.596 584.031ZM474.62 579.063L460.04 604.191H456.8L471.38 579.063H474.62ZM458.852 580.683C458.036 580.683 457.388 580.971 456.908 581.547C456.452 582.099 456.224 582.927 456.224 584.031C456.224 585.135 456.452 585.975 456.908 586.551C457.388 587.127 458.036 587.415 458.852 587.415C459.668 587.415 460.316 587.127 460.796 586.551C461.276 585.951 461.516 585.111 461.516 584.031C461.516 582.927 461.276 582.099 460.796 581.547C460.316 580.971 459.668 580.683 458.852 580.683ZM467.384 599.223C467.384 597.567 467.876 596.259 468.86 595.299C469.844 594.315 471.104 593.823 472.64 593.823C474.176 593.823 475.424 594.315 476.384 595.299C477.368 596.259 477.86 597.567 477.86 599.223C477.86 600.855 477.368 602.163 476.384 603.147C475.424 604.131 474.176 604.623 472.64 604.623C471.104 604.623 469.844 604.143 468.86 603.183C467.876 602.199 467.384 600.879 467.384 599.223ZM472.604 595.875C471.788 595.875 471.14 596.163 470.66 596.739C470.18 597.291 469.94 598.119 469.94 599.223C469.94 600.303 470.18 601.131 470.66 601.707C471.14 602.259 471.788 602.535 472.604 602.535C473.42 602.535 474.068 602.259 474.548 601.707C475.028 601.131 475.268 600.303 475.268 599.223C475.268 598.119 475.028 597.291 474.548 596.739C474.068 596.163 473.42 595.875 472.604 595.875Z" fill="#424242"/>
<path d="M301.006 626.977V631.171H305.578V632.521H301.006V636.841H306.118V638.191H299.368V625.627H306.118V626.977H301.006ZM307.985 633.223C307.985 632.215 308.189 631.333 308.597 630.577C309.005 629.809 309.563 629.215 310.271 628.795C310.991 628.375 311.795 628.165 312.683 628.165C313.451 628.165 314.165 628.345 314.825 628.705C315.485 629.053 315.989 629.515 316.337 630.091V624.871H317.993V638.191H316.337V636.337C316.013 636.925 315.533 637.411 314.897 637.795C314.261 638.167 313.517 638.353 312.665 638.353C311.789 638.353 310.991 638.137 310.271 637.705C309.563 637.273 309.005 636.667 308.597 635.887C308.189 635.107 307.985 634.219 307.985 633.223ZM316.337 633.241C316.337 632.497 316.187 631.849 315.887 631.297C315.587 630.745 315.179 630.325 314.663 630.037C314.159 629.737 313.601 629.587 312.989 629.587C312.377 629.587 311.819 629.731 311.315 630.019C310.811 630.307 310.409 630.727 310.109 631.279C309.809 631.831 309.659 632.479 309.659 633.223C309.659 633.979 309.809 634.639 310.109 635.203C310.409 635.755 310.811 636.181 311.315 636.481C311.819 636.769 312.377 636.913 312.989 636.913C313.601 636.913 314.159 636.769 314.663 636.481C315.179 636.181 315.587 635.755 315.887 635.203C316.187 634.639 316.337 633.985 316.337 633.241ZM329.509 628.327V638.191H327.871V636.733C327.559 637.237 327.121 637.633 326.557 637.921C326.005 638.197 325.393 638.335 324.721 638.335C323.953 638.335 323.263 638.179 322.651 637.867C322.039 637.543 321.553 637.063 321.193 636.427C320.845 635.791 320.671 635.017 320.671 634.105V628.327H322.291V633.889C322.291 634.861 322.537 635.611 323.029 636.139C323.521 636.655 324.193 636.913 325.045 636.913C325.921 636.913 326.611 636.643 327.115 636.103C327.619 635.563 327.871 634.777 327.871 633.745V628.327H329.509ZM331.663 633.241C331.663 632.221 331.867 631.333 332.275 630.577C332.683 629.809 333.247 629.215 333.967 628.795C334.699 628.375 335.533 628.165 336.469 628.165C337.681 628.165 338.677 628.459 339.457 629.047C340.249 629.635 340.771 630.451 341.023 631.495H339.259C339.091 630.895 338.761 630.421 338.269 630.073C337.789 629.725 337.189 629.551 336.469 629.551C335.533 629.551 334.777 629.875 334.201 630.523C333.625 631.159 333.337 632.065 333.337 633.241C333.337 634.429 333.625 635.347 334.201 635.995C334.777 636.643 335.533 636.967 336.469 636.967C337.189 636.967 337.789 636.799 338.269 636.463C338.749 636.127 339.079 635.647 339.259 635.023H341.023C340.759 636.031 340.231 636.841 339.439 637.453C338.647 638.053 337.657 638.353 336.469 638.353C335.533 638.353 334.699 638.143 333.967 637.723C333.247 637.303 332.683 636.709 332.275 635.941C331.867 635.173 331.663 634.273 331.663 633.241ZM342.596 633.223C342.596 632.215 342.8 631.333 343.208 630.577C343.616 629.809 344.174 629.215 344.882 628.795C345.602 628.375 346.4 628.165 347.276 628.165C348.14 628.165 348.89 628.351 349.526 628.723C350.162 629.095 350.636 629.563 350.948 630.127V628.327H352.604V638.191H350.948V636.355C350.624 636.931 350.138 637.411 349.49 637.795C348.854 638.167 348.11 638.353 347.258 638.353C346.382 638.353 345.59 638.137 344.882 637.705C344.174 637.273 343.616 636.667 343.208 635.887C342.8 635.107 342.596 634.219 342.596 633.223ZM350.948 633.241C350.948 632.497 350.798 631.849 350.498 631.297C350.198 630.745 349.79 630.325 349.274 630.037C348.77 629.737 348.212 629.587 347.6 629.587C346.988 629.587 346.43 629.731 345.926 630.019C345.422 630.307 345.02 630.727 344.72 631.279C344.42 631.831 344.27 632.479 344.27 633.223C344.27 633.979 344.42 634.639 344.72 635.203C345.02 635.755 345.422 636.181 345.926 636.481C346.43 636.769 346.988 636.913 347.6 636.913C348.212 636.913 348.77 636.769 349.274 636.481C349.79 636.181 350.198 635.755 350.498 635.203C350.798 634.639 350.948 633.985 350.948 633.241ZM357.37 629.677V635.491C357.37 635.971 357.472 636.313 357.676 636.517C357.88 636.709 358.234 636.805 358.738 636.805H359.944V638.191H358.468C357.556 638.191 356.872 637.981 356.416 637.561C355.96 637.141 355.732 636.451 355.732 635.491V629.677H354.454V628.327H355.732V625.843H357.37V628.327H359.944V629.677H357.37ZM362.775 626.725C362.463 626.725 362.199 626.617 361.983 626.401C361.767 626.185 361.659 625.921 361.659 625.609C361.659 625.297 361.767 625.033 361.983 624.817C362.199 624.601 362.463 624.493 362.775 624.493C363.075 624.493 363.327 624.601 363.531 624.817C363.747 625.033 363.855 625.297 363.855 625.609C363.855 625.921 363.747 626.185 363.531 626.401C363.327 626.617 363.075 626.725 362.775 626.725ZM363.567 628.327V638.191H361.929V628.327H363.567ZM370.661 638.353C369.737 638.353 368.897 638.143 368.141 637.723C367.397 637.303 366.809 636.709 366.377 635.941C365.957 635.161 365.747 634.261 365.747 633.241C365.747 632.233 365.963 631.345 366.395 630.577C366.839 629.797 367.439 629.203 368.195 628.795C368.951 628.375 369.797 628.165 370.733 628.165C371.669 628.165 372.515 628.375 373.271 628.795C374.027 629.203 374.621 629.791 375.053 630.559C375.497 631.327 375.719 632.221 375.719 633.241C375.719 634.261 375.491 635.161 375.035 635.941C374.591 636.709 373.985 637.303 373.217 637.723C372.449 638.143 371.597 638.353 370.661 638.353ZM370.661 636.913C371.249 636.913 371.801 636.775 372.317 636.499C372.833 636.223 373.247 635.809 373.559 635.257C373.883 634.705 374.045 634.033 374.045 633.241C374.045 632.449 373.889 631.777 373.577 631.225C373.265 630.673 372.857 630.265 372.353 630.001C371.849 629.725 371.303 629.587 370.715 629.587C370.115 629.587 369.563 629.725 369.059 630.001C368.567 630.265 368.171 630.673 367.871 631.225C367.571 631.777 367.421 632.449 367.421 633.241C367.421 634.045 367.565 634.723 367.853 635.275C368.153 635.827 368.549 636.241 369.041 636.517C369.533 636.781 370.073 636.913 370.661 636.913ZM382.678 628.147C383.878 628.147 384.85 628.513 385.594 629.245C386.338 629.965 386.71 631.009 386.71 632.377V638.191H385.09V632.611C385.09 631.627 384.844 630.877 384.352 630.361C383.86 629.833 383.188 629.569 382.336 629.569C381.472 629.569 380.782 629.839 380.266 630.379C379.762 630.919 379.51 631.705 379.51 632.737V638.191H377.872V628.327H379.51V629.731C379.834 629.227 380.272 628.837 380.824 628.561C381.388 628.285 382.006 628.147 382.678 628.147Z" fill="#424242"/>
<path d="M430 612.191L410 632.191H394" stroke="#424242" stroke-width="2" stroke-linecap="round"/>
<path d="M314.843 450.506C291.391 422.146 274.49 388.959 265.346 353.312C256.201 317.666 255.039 280.441 261.943 244.294C268.846 208.147 283.645 173.97 305.282 144.202C326.919 114.435 354.861 89.8109 387.113 72.089L507.505 291.191L314.843 450.506Z" fill="#FBEBAD"/>
<path d="M315.057 450.766C352.191 495.549 403.78 525.98 460.938 536.816C518.096 547.652 577.243 538.216 628.191 510.131L507.505 291.191L315.057 450.766Z" fill="#FC909F"/>
<path d="M757.505 291.191C757.505 335.964 745.481 379.914 722.69 418.452C699.899 456.989 667.177 488.699 627.943 510.268L507.505 291.191H757.505Z" fill="#9287FF"/>
<path d="M757.505 291.191C757.505 247.751 746.185 205.06 724.663 167.327C703.14 129.593 672.156 98.1188 634.765 76.0059C597.374 53.893 554.867 41.9046 511.432 41.2222C467.997 40.5399 425.133 51.1872 387.066 72.1147L507.505 291.191H757.505Z" fill="#F9C9B6"/>
</svg>
