<svg width="70" height="70" viewBox="0 0 70 70" fill="none" xmlns="http://www.w3.org/2000/svg">
<circle cx="35.3122" cy="34.8042" r="34.5376" fill="#57B8E8"/>
<path d="M35.0749 52.272L35.3122 52.3353L35.5495 52.272C39.258 51.283 42.646 48.6111 45.097 45.206C47.5513 41.7963 49.1272 37.5686 49.1272 33.3673V24.3046V23.7068L48.5811 23.4634L35.6871 17.7163L35.3122 17.5492L34.9372 17.7163L22.0432 23.4634L21.4971 23.7068V24.3046V33.3673C21.4971 37.5686 23.073 41.7963 25.5273 45.206C27.9783 48.6111 31.3663 51.283 35.0749 52.272ZM39.5488 32.962V33.883H40.4698C40.7191 33.883 41.0423 34.0153 41.3208 34.3092C41.5938 34.5974 41.7592 34.9759 41.7592 35.3566V41.8037C41.7592 42.053 41.627 42.3762 41.333 42.6547C41.0449 42.9277 40.6663 43.0931 40.2856 43.0931H30.1546C29.9052 43.0931 29.582 42.9608 29.3035 42.6669C29.0305 42.3787 28.8652 42.0002 28.8652 41.6194V35.1724C28.8652 34.9194 29.001 34.5892 29.2861 34.304C29.5713 34.0188 29.9015 33.883 30.1546 33.883H31.0756V32.962V30.199C31.0756 29.2312 31.559 28.3202 32.3657 27.6287C33.1755 26.9346 34.2551 26.515 35.3122 26.515C36.3692 26.515 37.4488 26.9346 38.2586 27.6287C39.0653 28.3202 39.5488 29.2312 39.5488 30.199V32.962ZM38.0752 33.883H38.9962V32.962V30.199C38.9962 28.0526 37.113 26.8834 35.3122 26.8834C33.5113 26.8834 31.6282 28.0526 31.6282 30.199V32.962V33.883H32.5492H38.0752ZM50.9692 32.962C50.9692 42.7196 44.2595 51.8123 35.3122 54.1166C26.3648 51.8123 19.6551 42.7196 19.6551 32.962V22.5085L35.3122 15.5499L50.9692 22.5085V32.962Z" fill="#F9F9F9" stroke="#F9F9F9" stroke-width="1.842"/>
</svg>
