<svg width="70" height="70" viewBox="0 0 70 70" fill="none" xmlns="http://www.w3.org/2000/svg">
<circle cx="34.5722" cy="35.2666" r="34.5376" fill="#57B8E8"/>
<path d="M42.8612 27.8982V28.8192H43.7822H49.3082C49.5525 28.8192 49.7867 28.9163 49.9595 29.089C50.1322 29.2617 50.2292 29.4959 50.2292 29.7402V50.0023C50.2292 51.5253 48.9893 52.7653 47.4662 52.7653H21.6781C20.1551 52.7653 18.9151 51.5253 18.9151 50.0023V29.7402C18.9151 29.496 19.0122 29.2617 19.1849 29.089C19.3576 28.9163 19.5919 28.8192 19.8361 28.8192H25.3622H26.2832V27.8982V26.0562C26.2832 21.4865 30.0024 17.7672 34.5722 17.7672C39.1419 17.7672 42.8612 21.4865 42.8612 26.0562V27.8982ZM40.0982 28.8192H41.0192V27.8982V26.0562C41.0192 22.5009 38.1275 19.6092 34.5722 19.6092C31.0168 19.6092 28.1252 22.5009 28.1252 26.0562V27.8982V28.8192H29.0462H40.0982ZM21.6781 30.6612H20.7571V31.5822V50.0023V50.9233H21.6781H47.4699H48.3911L48.3909 50.0021L48.3872 31.582L48.387 30.6612H47.4662H43.7822H42.8612V31.5822V34.3452H41.0192V31.5822V30.6612H40.0982H29.0462H28.1252V31.5822V34.3452H26.2832V31.5822V30.6612H25.3622H21.6781Z" fill="black" stroke="#F9F9F9" stroke-width="1.842"/>
</svg>
